<?xml version="1.0" encoding="UTF-8" standalone="no"?>
<!-- Created with Inkscape (http://www.inkscape.org/) -->

<svg
   xmlns:dc="http://purl.org/dc/elements/1.1/"
   xmlns:cc="http://creativecommons.org/ns#"
   xmlns:rdf="http://www.w3.org/1999/02/22-rdf-syntax-ns#"
   xmlns:svg="http://www.w3.org/2000/svg"
   xmlns="http://www.w3.org/2000/svg"
   xmlns:sodipodi="http://sodipodi.sourceforge.net/DTD/sodipodi-0.dtd"
   xmlns:inkscape="http://www.inkscape.org/namespaces/inkscape"
   width="236.73274"
   height="236.73274"
   id="svg2"
   version="1.1"
   inkscape:version="0.48.4 r9939"
   sodipodi:docname="jotateles-bolt.svg">
  <defs
     id="defs4">
    <linearGradient
       id="linearGradient2374">
      <stop
         offset="0"
         style="stop-color:#ffffff"
         id="stop2376" />
      <stop
         offset="1"
         style="stop-color:#ffffff;stop-opacity:0"
         id="stop2378" />
    </linearGradient>
    <clipPath
       clipPathUnits="userSpaceOnUse"
       id="clipPath9101">
      <path
         inkscape:connector-curvature="0"
         id="path9103"
         d="m 548,298.36218 0,4 -4,0 0,4 -4,0 0,4 -4,0 0,4 -4,0 0,4 0,4 0,4 0,4 0,4 -4,0 0,4 0,4 0,4 0,4 0,4 0,4 0,4 0,4 0,4 0,4 0,4 0,4 0,4 4,0 0,4 0,4 0,4 0,4 0,4 4,0 0,4 0,4 4,0 0,4 4,0 0,4 4,0 0,4 4,0 0,4 4,0 0,4 4,0 0,4 4,0 0,4 4,0 4,0 0,4 4,0 4,0 4,0 4,0 4,0 4,0 4,0 0,-4 4,0 0,-4 4,0 0,-4 4,0 0,-4 4,0 0,-4 4,0 0,-4 4,0 0,-4 4,0 0,-4 0,-4 0,-4 0,-4 0,-4 0,-4 4,0 0,-4 0,-4 0,-4 0,-4 0,-4 0,-4 0,-4 0,-4 0,-4 0,-4 0,-4 0,-4 0,-4 0,-4 0,-4 -4,0 0,4 -4,0 0,-4 0,-4 0,-4 0,-4 -4,0 0,-4 -4,0 0,-4 -4,0 0,-4 -4,0 0,-4 -4,0 -4,0 -4,0 0,-4 0,-4 -4,0 -4,0 -4,0 -4,0 -4,0 -4,0 -4,0 -4,0 -4,0 -4,0 -4,0 -4,0 z m 84,96 0,4 4,0 0,-4 -4,0 z m 4,0 4,0 0,-4 4,0 0,-4 0,-4 0,-4 0,-4 0,-4 0,-4 -4,0 -4,0 0,4 0,4 0,4 0,4 0,4 0,4 0,4 z m -108,-8 -4,0 0,-4 0,-4 0,-4 0,-4 -4,0 -4,0 0,4 0,4 0,4 0,4 0,4 4,0 0,4 0,4 4,0 0,4 4,0 0,-4 0,-4 0,-4 0,-4 z m 72,-44 4,0 4,0 0,4 4,0 4,0 0,4 4,0 0,4 -4,0 0,-4 -4,0 -4,0 -4,0 -4,0 -4,0 -4,0 0,-4 4,0 4,0 0,-4 z m -52,4 4,0 4,0 4,0 4,0 4,0 0,4 -4,0 0,4 -4,0 -4,0 -4,0 -4,0 -4,0 0,4 -4,0 0,-4 0,-4 4,0 4,0 0,-4 z m 32,4 4,0 0,4 0,4 0,4 0,4 0,4 0,4 0,4 0,4 4,0 0,4 4,0 0,4 4,0 0,4 -4,0 0,4 -4,0 -4,0 -4,0 -4,0 0,-4 -4,0 0,-4 4,0 0,4 4,0 4,0 4,0 4,0 0,-4 -4,0 0,-4 -4,0 0,-4 -4,0 0,-4 0,-4 0,-4 0,-4 0,-4 0,-4 0,-4 0,-4 z m -28,12 4,0 4,0 0,4 0,4 -4,0 -4,0 0,-4 0,-4 z m 52,0 4,0 4,0 0,4 0,4 -4,0 -4,0 0,-4 0,-4 z m -4,40 4,0 0,4 4,0 0,4 -4,0 0,4 -4,0 0,4 -4,0 0,4 -4,0 -4,0 -4,0 -4,0 -4,0 -4,0 0,-4 -4,0 -4,0 0,-4 -4,0 0,-4 0,-4 4,0 4,0 4,0 4,0 4,0 4,0 4,0 4,0 4,0 4,0 0,-4 z"
         style="fill:#ffccaa;fill-opacity:1;stroke:none" />
    </clipPath>
  </defs>
  <sodipodi:namedview
     id="base"
     pagecolor="#ffffff"
     bordercolor="#666666"
     borderopacity="1.0"
     inkscape:pageopacity="0.0"
     inkscape:pageshadow="2"
     inkscape:zoom="1"
     inkscape:cx="386.86964"
     inkscape:cy="64.76192"
     inkscape:document-units="px"
     inkscape:current-layer="layer1"
     showgrid="true"
     inkscape:window-width="1920"
     inkscape:window-height="1021"
     inkscape:window-x="0"
     inkscape:window-y="27"
     inkscape:window-maximized="1"
     fit-margin-top="0"
     fit-margin-left="0"
     fit-margin-right="0"
     fit-margin-bottom="0"
     inkscape:showpageshadow="false">
    <inkscape:grid
       type="xygrid"
       id="grid2985"
       empspacing="1"
       visible="false"
       enabled="true"
       snapvisiblegridlinesonly="true"
       spacingx="4px"
       spacingy="4px"
       dotted="true"
       originx="-179.48119px"
       originy="-572.27677px" />
  </sodipodi:namedview>
  <metadata
     id="metadata7">
    <rdf:RDF>
      <cc:Work
         rdf:about="">
        <dc:format>image/svg+xml</dc:format>
        <dc:type
           rdf:resource="http://purl.org/dc/dcmitype/StillImage" />
        <dc:title />
      </cc:Work>
    </rdf:RDF>
  </metadata>
  <g
     inkscape:label="Camada 1"
     inkscape:groupmode="layer"
     id="layer1"
     transform="translate(-179.48119,-243.35267)">
    <path
       sodipodi:type="arc"
       style="fill:#47a5b8;fill-opacity:1;stroke:#4299aa;stroke-width:4.16133833;stroke-miterlimit:4;stroke-opacity:1;stroke-dasharray:none"
       id="path3035"
       sodipodi:cx="-240"
       sodipodi:cy="20"
       sodipodi:rx="80"
       sodipodi:ry="80"
       d="m -160,20 c 0,44.18278 -35.81722,80 -80,80 -44.18278,0 -80,-35.81722 -80,-80 0,-44.18278 35.81722,-80 80,-80 44.18278,0 80,35.81722 80,80 z"
       transform="matrix(1.4418439,0,0,1.4418439,643.8901,332.88216)" />
    <g
       id="g3805"
       transform="translate(-2.152436,9.356858)">
      <path
         inkscape:connector-curvature="0"
         id="path8943"
         d="m 292,254.36218 0,4 -4,0 0,4 -4,0 -4,0 -4,0 0,4 -4,0 -4,0 0,4 -4,0 0,4 4,0 4,0 4,0 0,-4 4,0 4,0 0,-4 4,0 4,0 0,-4 4,0 4,0 4,0 4,0 0,-4 -4,0 -4,0 0,-4 -4,0 -4,0 z"
         style="fill:#000000;fill-opacity:1;stroke:none" />
      <path
         inkscape:connector-curvature="0"
         id="path8941"
         d="m 308,262.36218 0,4 4,0 4,0 4,0 0,4 4,0 0,4 4,0 4,0 0,-4 -4,0 0,-4 -4,0 0,-4 -4,0 -4,0 -4,0 -4,0 z"
         style="fill:#000000;fill-opacity:1;stroke:none" />
      <path
         inkscape:connector-curvature="0"
         id="path8939"
         d="m 332,274.36218 0,4 4,0 0,4 4,0 0,4 4,0 0,4 4,0 0,4 4,0 0,4 4,0 0,4 0,4 4,0 0,4 0,4 0,4 0,4 0,4 0,4 0,4 0,4 0,4 0,4 0,4 0,4 4,0 0,-4 0,-4 0,-4 0,-4 0,-4 0,-4 0,-4 0,-4 0,-4 0,-4 0,-4 0,-4 0,-4 -4,0 0,-4 0,-4 -4,0 0,-4 -4,0 0,-4 -4,0 0,-4 -4,0 0,-4 -4,0 0,-4 -4,0 -4,0 z"
         style="fill:#000000;fill-opacity:1;stroke:none" />
      <path
         inkscape:connector-curvature="0"
         id="path8937"
         d="m 360,354.36218 -4,0 0,-4 0,-4 0,-4 0,-4 0,-4 0,-4 0,-4 -4,0 0,-4 0,-4 0,-4 0,-4 -4,0 0,4 0,4 0,4 0,4 0,4 0,4 4,0 0,4 0,4 0,4 0,4 0,4 0,4 0,4 0,4 0,4 0,4 0,4 0,4 0,4 0,4 -4,0 0,4 0,4 0,4 0,4 0,4 0,4 0,4 4,0 0,-4 0,-4 0,-4 0,-4 4,0 0,-4 -4,0 0,-4 4,0 0,-4 0,-4 0,-4 0,-4 0,-4 0,-4 0,-4 4,0 4,0 0,-4 -4,0 0,-4 0,-4 z"
         style="fill:#000000;fill-opacity:1;stroke:none" />
      <path
         inkscape:connector-curvature="0"
         id="path8935"
         d="m 364,366.36218 0,4 0,4 0,4 0,4 0,4 0,4 4,0 0,-4 0,-4 0,-4 0,-4 0,-4 0,-4 -4,0 z"
         style="fill:#000000;fill-opacity:1;stroke:none" />
      <path
         inkscape:connector-curvature="0"
         id="path8933"
         d="m 364,390.36218 -4,0 0,4 4,0 0,-4 z"
         style="fill:#000000;fill-opacity:1;stroke:none" />
      <path
         inkscape:connector-curvature="0"
         id="path8931"
         d="m 360,394.36218 -4,0 0,4 4,0 0,-4 z"
         style="fill:#000000;fill-opacity:1;stroke:none" />
      <path
         inkscape:connector-curvature="0"
         id="path8929"
         d="m 348,418.36218 -4,0 0,4 4,0 0,-4 z"
         style="fill:#000000;fill-opacity:1;stroke:none" />
      <path
         inkscape:connector-curvature="0"
         id="path8927"
         d="m 344,422.36218 -4,0 0,4 4,0 0,-4 z"
         style="fill:#000000;fill-opacity:1;stroke:none" />
      <path
         inkscape:connector-curvature="0"
         id="path8925"
         d="m 340,426.36218 -4,0 0,4 4,0 0,-4 z"
         style="fill:#000000;fill-opacity:1;stroke:none" />
      <path
         inkscape:connector-curvature="0"
         id="path8923"
         d="m 336,430.36218 -4,0 0,4 4,0 0,-4 z"
         style="fill:#000000;fill-opacity:1;stroke:none" />
      <path
         inkscape:connector-curvature="0"
         id="path8921"
         d="m 332,434.36218 -4,0 0,4 4,0 0,-4 z"
         style="fill:#000000;fill-opacity:1;stroke:none" />
      <path
         inkscape:connector-curvature="0"
         id="path8919"
         d="m 328,438.36218 -4,0 0,4 4,0 0,-4 z"
         style="fill:#000000;fill-opacity:1;stroke:none" />
      <path
         inkscape:connector-curvature="0"
         id="path8917"
         d="m 324,442.36218 -4,0 0,4 4,0 0,-4 z"
         style="fill:#000000;fill-opacity:1;stroke:none" />
      <path
         inkscape:connector-curvature="0"
         id="path8915"
         d="m 320,446.36218 -4,0 -4,0 -4,0 -4,0 -4,0 -4,0 -4,0 0,4 4,0 4,0 4,0 4,0 4,0 4,0 4,0 0,-4 z"
         style="fill:#000000;fill-opacity:1;stroke:none" />
      <path
         inkscape:connector-curvature="0"
         id="path8913"
         d="m 292,446.36218 0,-4 -4,0 -4,0 0,4 4,0 4,0 z"
         style="fill:#000000;fill-opacity:1;stroke:none" />
      <path
         inkscape:connector-curvature="0"
         id="path8911"
         d="m 284,442.36218 0,-4 -4,0 0,4 4,0 z"
         style="fill:#000000;fill-opacity:1;stroke:none" />
      <path
         inkscape:connector-curvature="0"
         id="path8909"
         d="m 280,438.36218 0,-4 -4,0 0,4 4,0 z"
         style="fill:#000000;fill-opacity:1;stroke:none" />
      <path
         inkscape:connector-curvature="0"
         id="path8907"
         d="m 276,434.36218 0,-4 -4,0 0,4 4,0 z"
         style="fill:#000000;fill-opacity:1;stroke:none" />
      <path
         inkscape:connector-curvature="0"
         id="path8905"
         d="m 272,430.36218 0,-4 -4,0 0,4 4,0 z"
         style="fill:#000000;fill-opacity:1;stroke:none" />
      <path
         inkscape:connector-curvature="0"
         id="path8903"
         d="m 268,426.36218 0,-4 -4,0 0,4 4,0 z"
         style="fill:#000000;fill-opacity:1;stroke:none" />
      <path
         inkscape:connector-curvature="0"
         id="path8901"
         d="m 264,422.36218 0,-4 -4,0 0,4 4,0 z"
         style="fill:#000000;fill-opacity:1;stroke:none" />
      <path
         inkscape:connector-curvature="0"
         id="path8899"
         d="m 260,418.36218 0,-4 -4,0 0,4 4,0 z"
         style="fill:#000000;fill-opacity:1;stroke:none" />
      <path
         inkscape:connector-curvature="0"
         id="path8897"
         d="m 256,414.36218 0,-4 0,-4 -4,0 0,-4 0,-4 0,-4 0,-4 0,-4 -4,0 0,4 0,4 0,4 0,4 -4,0 0,4 4,0 0,4 4,0 0,4 4,0 z"
         style="fill:#000000;fill-opacity:1;stroke:none" />
      <path
         inkscape:connector-curvature="0"
         id="path8895"
         d="m 244,402.36218 0,-4 -4,0 0,4 4,0 z"
         style="fill:#000000;fill-opacity:1;stroke:none" />
      <path
         inkscape:connector-curvature="0"
         id="path8893"
         d="m 240,398.36218 0,-4 0,-4 -4,0 0,4 0,4 4,0 z"
         style="fill:#000000;fill-opacity:1;stroke:none" />
      <path
         inkscape:connector-curvature="0"
         id="path8891"
         d="m 236,390.36218 0,-4 0,-4 0,-4 0,-4 0,-4 4,0 4,0 0,4 0,4 0,4 0,4 4,0 0,-4 0,-4 0,-4 0,-4 0,-4 0,-4 0,-4 0,-4 0,-4 0,-4 0,-4 0,-4 0,-4 4,0 0,-4 0,-4 0,-4 0,-4 0,-4 -4,0 0,4 -4,0 0,4 0,4 0,4 0,4 0,4 0,4 0,4 0,4 0,4 0,4 0,4 0,4 -4,0 0,-4 0,-4 0,-4 -4,0 0,4 0,4 0,4 -4,0 0,4 0,4 0,4 0,4 0,4 0,4 4,0 z"
         style="fill:#000000;fill-opacity:1;stroke:none" />
      <path
         inkscape:connector-curvature="0"
         id="path8889"
         d="m 236,354.36218 0,-4 0,-4 0,-4 0,-4 0,-4 0,-4 0,-4 0,-4 0,-4 0,-4 0,-4 0,-4 4,0 0,-4 0,-4 -4,0 0,4 -4,0 0,4 0,4 0,4 0,4 0,4 0,4 0,4 0,4 0,4 0,4 0,4 0,4 0,4 4,0 z"
         style="fill:#000000;fill-opacity:1;stroke:none" />
      <path
         inkscape:connector-curvature="0"
         id="path8887"
         d="m 240,298.36218 4,0 0,-4 -4,0 0,4 z"
         style="fill:#000000;fill-opacity:1;stroke:none" />
      <path
         inkscape:connector-curvature="0"
         id="path8885"
         d="m 244,294.36218 4,0 0,-4 -4,0 0,4 z"
         style="fill:#000000;fill-opacity:1;stroke:none" />
      <path
         inkscape:connector-curvature="0"
         id="path8883"
         d="m 248,290.36218 4,0 0,-4 -4,0 0,4 z"
         style="fill:#000000;fill-opacity:1;stroke:none" />
      <path
         inkscape:connector-curvature="0"
         id="path8881"
         d="m 252,286.36218 4,0 0,-4 -4,0 0,4 z"
         style="fill:#000000;fill-opacity:1;stroke:none" />
      <path
         inkscape:connector-curvature="0"
         id="path8879"
         d="m 256,282.36218 4,0 0,-4 -4,0 0,4 z"
         style="fill:#000000;fill-opacity:1;stroke:none" />
      <path
         inkscape:connector-curvature="0"
         id="path8877"
         d="m 260,278.36218 4,0 0,-4 -4,0 0,4 z"
         style="fill:#000000;fill-opacity:1;stroke:none" />
      <path
         inkscape:connector-curvature="0"
         id="path8875"
         d="m 252,314.36218 4,0 0,-4 4,0 0,-4 4,0 0,-4 4,0 0,-4 -4,0 -4,0 0,4 -4,0 0,4 -4,0 0,4 0,4 z"
         style="fill:#000000;fill-opacity:1;stroke:none" />
      <path
         inkscape:connector-curvature="0"
         id="path8873"
         d="m 268,298.36218 4,0 4,0 4,0 4,0 4,0 4,0 4,0 4,0 4,0 4,0 4,0 4,0 4,0 4,0 4,0 4,0 4,0 0,4 4,0 0,4 4,0 0,4 4,0 0,-4 0,-4 -4,0 0,-4 -4,0 0,-4 -4,0 -4,0 -4,0 -4,0 -4,0 -4,0 -4,0 -4,0 -4,0 -4,0 -4,0 -4,0 -4,0 -4,0 -4,0 -4,0 -4,0 -4,0 0,4 z"
         style="fill:#000000;fill-opacity:1;stroke:none" />
      <path
         inkscape:connector-curvature="0"
         id="path8869"
         d="m 276,362.36218 0,4 4,0 0,-4 -4,0 z"
         style="fill:#000000;fill-opacity:1;stroke:none" />
      <path
         inkscape:connector-curvature="0"
         id="rect2998-24"
         d="m 328,362.36218 0,4 4,0 0,-4 -4,0 z"
         style="fill:#000000;fill-opacity:1;stroke:none" />
      <path
         inkscape:connector-curvature="0"
         id="rect2998-997"
         d="m 292,262.36218 0,4 -4,0 -4,0 0,4 -4,0 -4,0 0,4 -4,0 -4,0 -4,0 0,4 -4,0 0,4 -4,0 0,4 -4,0 0,4 -4,0 0,4 -4,0 0,4 -4,0 0,4 0,4 -4,0 0,4 0,4 0,4 0,4 0,4 0,4 0,4 0,4 0,4 0,4 0,4 0,4 4,0 0,4 0,4 0,4 4,0 0,-4 0,-4 0,-4 0,-4 0,-4 0,-4 0,-4 0,-4 0,-4 0,-4 0,-4 0,-4 4,0 0,-4 4,0 0,-4 0,-4 4,0 0,-4 4,0 0,-4 4,0 4,0 0,-4 4,0 4,0 4,0 4,0 4,0 4,0 4,0 4,0 4,0 4,0 4,0 4,0 4,0 4,0 4,0 4,0 4,0 4,0 0,4 4,0 0,4 4,0 0,4 0,4 4,0 0,4 0,4 0,4 0,4 4,0 0,4 0,4 0,4 0,4 0,4 0,4 0,4 4,0 0,-4 0,-4 0,-4 0,-4 0,-4 0,-4 0,-4 0,-4 0,-4 0,-4 0,-4 0,-4 -4,0 0,-4 0,-4 -4,0 0,-4 -4,0 0,-4 -4,0 0,-4 -4,0 0,-4 -4,0 0,-4 -4,0 0,-4 -4,0 -4,0 0,-4 -4,0 0,-4 -4,0 -4,0 -4,0 0,-4 -4,0 -4,0 -4,0 -4,0 z m 24,80 0,4 -4,0 0,4 4,0 4,0 4,0 4,0 4,0 4,0 0,-4 -4,0 -4,0 0,-4 -4,0 -4,0 -4,0 z m 20,8 0,4 4,0 0,-4 -4,0 z m -68,-4 0,4 -4,0 -4,0 0,4 0,4 4,0 0,-4 4,0 4,0 4,0 4,0 4,0 0,-4 4,0 0,-4 -4,0 -4,0 -4,0 -4,0 -4,0 z m 32,4 0,4 0,4 0,4 0,4 0,4 0,4 0,4 0,4 4,0 0,-4 0,-4 0,-4 0,-4 0,-4 0,-4 0,-4 0,-4 -4,0 z m 4,32 0,4 4,0 0,-4 -4,0 z m 4,4 0,4 4,0 0,-4 -4,0 z m 4,4 0,4 4,0 0,-4 -4,0 z m 0,4 -4,0 -4,0 -4,0 -4,0 0,4 4,0 4,0 4,0 4,0 0,-4 z m -16,0 0,-4 -4,0 0,4 4,0 z m -24,-28 0,4 4,0 4,0 0,-4 -4,0 -4,0 z m 52,0 0,4 4,0 4,0 0,-4 -4,0 -4,0 z"
         style="fill:#803300;fill-opacity:1;stroke:none" />
      <path
         inkscape:connector-curvature="0"
         id="rect2998-997-79"
         d="m 320,402.36218 0,4 4,0 0,-4 -4,0 z m 4,4 0,4 4,0 0,-4 -4,0 z m 0,4 -4,0 0,4 4,0 0,-4 z m -4,4 -4,0 0,4 4,0 0,-4 z m -4,4 -4,0 -4,0 -4,0 -4,0 -4,0 -4,0 0,4 4,0 4,0 4,0 4,0 4,0 4,0 0,-4 z m -24,0 0,-4 -4,0 -4,0 0,4 4,0 4,0 z m -8,-4 0,-4 4,0 4,0 4,0 4,0 4,0 4,0 4,0 4,0 4,0 0,-4 -4,0 -4,0 -4,0 -4,0 -4,0 -4,0 -4,0 -4,0 -4,0 -4,0 0,4 0,4 4,0 z"
         style="fill:#70675d;fill-opacity:1;stroke:none" />
      <path
         inkscape:connector-curvature="0"
         id="rect2998-997-45-0"
         d="m 272,362.36218 0,4 4,0 0,-4 -4,0 z m 52,0 0,4 4,0 0,-4 -4,0 z m -4,44 0,4 4,0 0,-4 -4,0 z m 0,4 -4,0 -4,0 -4,0 -4,0 -4,0 -4,0 -4,0 -4,0 -4,0 0,4 4,0 4,0 0,4 4,0 4,0 4,0 4,0 4,0 4,0 0,-4 4,0 0,-4 z"
         style="fill:#f2f2f2;fill-opacity:1;stroke:none" />
      <path
         inkscape:connector-curvature="0"
         id="rect2998-997-45-0-6"
         d="m 268,298.36218 0,4 -4,0 0,4 -4,0 0,4 -4,0 0,4 -4,0 0,4 0,4 0,4 0,4 0,4 0,4 0,4 0,4 0,4 0,4 4,0 0,4 0,4 0,4 0,4 0,4 0,4 0,4 4,0 0,4 0,4 0,4 0,4 0,4 0,4 4,0 0,4 4,0 0,4 4,0 0,4 0,4 4,0 0,4 4,0 0,4 0,4 4,0 0,4 4,0 4,0 4,0 4,0 0,-4 0,-4 4,0 0,-4 0,-4 -4,0 -4,0 -4,0 0,-4 -4,0 -4,0 0,-4 -4,0 0,-4 -4,0 0,-4 0,-4 4,0 4,0 4,0 4,0 4,0 0,-4 0,-4 -4,0 0,-4 4,0 0,4 4,0 0,-4 4,0 0,-4 -4,0 0,-4 -4,0 0,-4 -4,0 0,-4 4,0 0,-4 0,-4 0,-4 0,-4 0,-4 0,-4 4,0 4,0 0,4 0,4 0,4 0,4 0,4 0,4 0,4 0,4 4,0 0,4 4,0 0,4 4,0 0,4 -4,0 0,4 0,4 4,0 0,-4 4,0 4,0 4,0 0,4 0,4 0,4 -4,0 0,4 -4,0 0,4 -4,0 0,4 -4,0 -4,0 0,4 0,4 4,0 0,4 0,4 4,0 4,0 4,0 0,-4 4,0 0,-4 0,-4 4,0 0,-4 4,0 0,-4 0,-4 4,0 0,-4 0,-4 0,-4 0,-4 0,-4 0,-4 4,0 0,-4 4,0 0,-4 0,-4 0,-4 0,-4 0,-4 0,-4 0,-4 0,-4 0,-4 0,-4 0,-4 0,-4 -4,0 0,-4 0,-4 0,-4 0,-4 -4,0 0,-4 -4,0 0,-4 -4,0 0,-4 -4,0 0,-4 -4,0 -4,0 -4,0 0,-4 0,-4 -4,0 -4,0 -4,0 -4,0 -4,0 -4,0 -4,0 -4,0 -4,0 -4,0 -4,0 -4,0 z m 52,44 4,0 4,0 0,4 4,0 4,0 0,4 4,0 0,4 -4,0 0,-4 -4,0 -4,0 -4,0 -4,0 -4,0 -4,0 0,-4 4,0 4,0 0,-4 z m -52,4 4,0 4,0 4,0 4,0 4,0 0,4 -4,0 0,4 -4,0 -4,0 -4,0 -4,0 -4,0 0,4 -4,0 0,-4 0,-4 4,0 4,0 0,-4 z m 4,16 4,0 4,0 0,4 0,4 -4,0 -4,0 0,-4 0,-4 z m 52,0 4,0 4,0 0,4 0,4 -4,0 -4,0 0,-4 0,-4 z m 32,4 0,4 0,4 0,4 0,4 0,4 0,4 4,0 0,-4 0,-4 0,-4 0,-4 0,-4 0,-4 -4,0 z m -116,4 0,4 0,4 0,4 0,4 0,4 4,0 0,4 0,4 4,0 0,-4 0,-4 0,-4 -4,0 0,-4 0,-4 0,-4 0,-4 -4,0 z m 108,20 0,4 4,0 0,-4 -4,0 z"
         style="fill:#ffccaa;fill-opacity:1;stroke:none" />
      <path
         inkscape:connector-curvature="0"
         id="rect2998-997-45-0-6-1"
         d="m 248,334.36218 0,4 0,4 0,4 0,4 0,4 0,4 0,4 0,4 0,4 0,4 0,4 0,4 4,0 0,4 4,0 0,4 0,4 0,4 0,4 0,4 4,0 0,-4 0,-4 0,-4 0,-4 0,-4 0,-4 -4,0 0,-4 0,-4 0,-4 0,-4 0,-4 0,-4 0,-4 -4,0 0,-4 0,-4 0,-4 0,-4 0,-4 -4,0 z m 12,72 0,4 0,4 4,0 0,4 4,0 0,4 4,0 0,-4 0,-4 -4,0 0,-4 -4,0 0,-4 -4,0 z m 12,16 0,4 4,0 0,-4 -4,0 z m 4,4 0,4 4,0 0,-4 -4,0 z m 72,-92 0,4 0,4 0,4 0,4 0,4 0,4 0,4 0,4 0,4 0,4 0,4 0,4 0,4 -4,0 0,4 -4,0 0,4 0,4 0,4 0,4 0,4 0,4 -4,0 0,4 0,4 4,0 0,-4 4,0 0,-4 0,-4 0,-4 0,-4 0,-4 0,-4 4,0 0,-4 4,0 0,-4 0,-4 0,-4 0,-4 0,-4 0,-4 0,-4 0,-4 0,-4 0,-4 0,-4 0,-4 0,-4 0,-4 -4,0 z m -12,88 -4,0 0,4 4,0 0,-4 z m -4,4 -4,0 0,4 4,0 0,-4 z m 28,-60 0,4 0,4 0,4 0,4 0,4 0,4 4,0 0,-4 0,-4 0,-4 0,-4 0,-4 0,-4 -4,0 z m 0,24 -4,0 0,4 4,0 0,-4 z m -4,4 -4,0 0,4 4,0 0,-4 z m -120,-24 0,4 0,4 0,4 0,4 0,4 4,0 0,-4 0,-4 0,-4 0,-4 0,-4 -4,0 z m 4,20 0,4 0,4 4,0 0,-4 0,-4 -4,0 z m 4,8 0,4 4,0 0,-4 -4,0 z"
         style="fill:#ffb381;fill-opacity:1;stroke:none" />
      <path
         inkscape:connector-curvature="0"
         id="rect2998-997-45-0-6-50"
         d="m 316,298.36218 0,4 0,4 4,0 4,0 4,0 0,4 4,0 0,4 4,0 0,4 4,0 0,4 4,0 0,4 0,4 0,4 0,4 4,0 0,-4 0,-4 0,-4 0,-4 0,-4 0,-4 0,-4 -4,0 0,-4 -4,0 0,-4 -4,0 0,-4 -4,0 -4,0 -4,0 -4,0 -4,0 z"
         style="fill:#ffd7bd;fill-opacity:1;stroke:none" />
      <path
         inkscape:connector-curvature="0"
         id="rect2998-997-45-0-6-7629-3"
         d="m 296,350.36218 0,4 0,4 0,4 0,4 0,4 0,4 -4,0 0,4 4,0 0,4 4,0 0,-4 0,-4 0,-4 0,-4 0,-4 0,-4 0,-4 0,-4 -4,0 z m 4,32 0,4 4,0 0,-4 -4,0 z m 4,4 0,4 -4,0 0,4 4,0 4,0 4,0 0,-4 -4,0 0,-4 -4,0 z"
         style="fill:#ffd1b3;fill-opacity:1;stroke:none" />
      <path
         transform="translate(-280,0)"
         clip-path="url(#clipPath9101)"
         style="fill:#ff6600;fill-opacity:1;stroke:none"
         d="m 546.19226,293.55665 -10.76335,72.55681 14.78314,6.36632 -11.01177,53.04582 39.4304,-68.90246 -22.11674,-5.30806 22.2061,-53.40989 -32.52778,-4.34847 z"
         id="path9037"
         inkscape:connector-curvature="0"
         sodipodi:nodetypes="ccccccccc" />
      <path
         inkscape:connector-curvature="0"
         id="rect2998-997-45-0-6-7181"
         d="m 248,382.36218 0,4 4,0 0,-4 -4,0 z m 4,4 0,4 0,4 0,4 0,4 0,4 4,0 0,-4 0,-4 0,-4 0,-4 0,-4 -4,0 z m 4,20 0,4 0,4 4,0 0,-4 0,-4 -4,0 z m 4,8 0,4 4,0 0,-4 -4,0 z m 4,4 0,4 4,0 0,-4 -4,0 z m 4,4 0,4 4,0 0,-4 -4,0 z m 4,4 0,4 4,0 0,-4 -4,0 z m 4,4 0,4 4,0 0,-4 -4,0 z m 4,4 0,4 4,0 0,-4 -4,0 z m 4,4 0,4 4,0 4,0 0,4 4,0 4,0 4,0 4,0 4,0 4,0 4,0 0,-4 4,0 0,-4 -4,0 -4,0 -4,0 0,-4 0,-4 -4,0 0,-4 0,-4 -4,0 0,4 0,4 -4,0 0,4 0,4 -4,0 -4,0 -4,0 -4,0 z m 40,0 4,0 0,-4 -4,0 0,4 z m 4,-4 4,0 0,-4 -4,0 0,4 z m 4,-4 4,0 0,-4 -4,0 0,4 z m 4,-4 4,0 0,-4 -4,0 0,4 z m 4,-4 4,0 0,-4 -4,0 0,4 z m 4,-4 4,0 0,-4 0,-4 0,-4 0,-4 0,-4 0,-4 -4,0 0,4 0,4 0,4 0,4 0,4 0,4 z m -48,-20 0,4 -4,0 -4,0 -4,0 -4,0 -4,0 0,4 0,4 4,0 0,-4 4,0 4,0 4,0 4,0 4,0 4,0 4,0 4,0 4,0 4,0 0,-4 4,0 0,4 4,0 0,-4 0,-4 -4,0 -4,0 -4,0 0,4 -4,0 0,-4 -4,0 -4,0 -4,0 -4,0 z"
         style="fill:#333333;fill-opacity:1;stroke:none" />
    </g>
  </g>
</svg>
