<?xml version="1.0" encoding="UTF-8" standalone="no"?>
<!-- Created with Inkscape (http://www.inkscape.org/) -->

<svg
   xmlns:dc="http://purl.org/dc/elements/1.1/"
   xmlns:cc="http://creativecommons.org/ns#"
   xmlns:rdf="http://www.w3.org/1999/02/22-rdf-syntax-ns#"
   xmlns:svg="http://www.w3.org/2000/svg"
   xmlns="http://www.w3.org/2000/svg"
   xmlns:xlink="http://www.w3.org/1999/xlink"
   xmlns:sodipodi="http://sodipodi.sourceforge.net/DTD/sodipodi-0.dtd"
   xmlns:inkscape="http://www.inkscape.org/namespaces/inkscape"
   width="28.899555cm"
   height="40.865776cm"
   viewBox="0 0 1024 1448"
   id="svg2"
   version="1.1"
   inkscape:version="0.91 r13725"
   sodipodi:docname="todo-o-poder-emana-do-povo-e-somente-do-povo.svg"
   inkscape:export-filename="/home/teles/todo-o-poder-emana-do-povo-e-somente-do-povo.png"
   inkscape:export-xdpi="90"
   inkscape:export-ydpi="90">
  <defs
     id="defs4">
    <linearGradient
       id="linearGradient4618"
       inkscape:collect="always">
      <stop
         id="stop4620"
         offset="0"
         style="stop-color:#333333;stop-opacity:1" />
      <stop
         id="stop4622"
         offset="1"
         style="stop-color:#000000;stop-opacity:1" />
    </linearGradient>
    <linearGradient
       inkscape:collect="always"
       id="linearGradient4600">
      <stop
         style="stop-color:#777777;stop-opacity:1"
         offset="0"
         id="stop4602" />
      <stop
         style="stop-color:#222222;stop-opacity:1"
         offset="1"
         id="stop4604" />
    </linearGradient>
    <linearGradient
       id="linearGradient3712">
      <stop
         offset="0"
         style="stop-color:#ff1414"
         id="stop3714" />
      <stop
         offset="1"
         style="stop-color:#850000"
         id="stop3716" />
    </linearGradient>
    <radialGradient
       inkscape:collect="always"
       r="449.92001"
       gradientTransform="matrix(0.83027976,0,0,0.79036976,1481.932,259.481)"
       cx="-453.54999"
       cy="141.95"
       gradientUnits="userSpaceOnUse"
       xlink:href="#linearGradient3712"
       id="radialGradient4140" />
    <radialGradient
       inkscape:collect="always"
       r="332.87"
       gradientTransform="matrix(0.83027976,4.1447283e-8,-5.7264793e-8,1.1471619,1481.932,139.14933)"
       cx="-454.88"
       cy="92.258003"
       gradientUnits="userSpaceOnUse"
       xlink:href="#linearGradient3712"
       id="radialGradient4145" />
    <radialGradient
       inkscape:collect="always"
       xlink:href="#linearGradient3712"
       id="radialGradient4286"
       gradientUnits="userSpaceOnUse"
       gradientTransform="matrix(0.83027971,4.1447281e-8,-5.726479e-8,1.1471618,1999.6462,345.07289)"
       cx="-454.88"
       cy="92.258003"
       r="332.87" />
    <clipPath
       clipPathUnits="userSpaceOnUse"
       id="clipPath4368">
      <path
         style="fill:none;fill-rule:evenodd;stroke:#000000;stroke-width:1.03445756px;stroke-linecap:butt;stroke-linejoin:miter;stroke-opacity:1"
         d="M -250.35253,630.84373 172.34544,483.72825 360.90188,332.46869 128.83241,90.038978 l -391.61723,50.765202 0,275.58249 z"
         id="path4370"
         inkscape:connector-curvature="0" />
    </clipPath>
    <radialGradient
       inkscape:collect="always"
       xlink:href="#linearGradient4600"
       id="radialGradient4606"
       cx="-5.7142901"
       cy="518.07654"
       fx="-5.7142901"
       fy="518.07654"
       r="512"
       gradientTransform="matrix(-0.50751459,0.50046276,-0.34987527,-0.35480522,172.64778,704.7526)"
       gradientUnits="userSpaceOnUse" />
    <radialGradient
       inkscape:collect="always"
       xlink:href="#linearGradient4618"
       id="radialGradient4610"
       gradientUnits="userSpaceOnUse"
       gradientTransform="matrix(-0.87099372,0.90393676,-0.944907,-0.91047074,469.96439,1142.9041)"
       cx="-286.19321"
       cy="763.66486"
       fx="-286.19321"
       fy="763.66486"
       r="512" />
  </defs>
  <sodipodi:namedview
     id="base"
     pagecolor="#ffffff"
     bordercolor="#666666"
     borderopacity="1.0"
     inkscape:pageopacity="0.0"
     inkscape:pageshadow="2"
     inkscape:zoom="0.31591449"
     inkscape:cx="486"
     inkscape:cy="754"
     inkscape:document-units="px"
     inkscape:current-layer="layer1"
     showgrid="false"
     fit-margin-top="0"
     fit-margin-left="0"
     fit-margin-right="0"
     fit-margin-bottom="0"
     inkscape:window-width="1366"
     inkscape:window-height="692"
     inkscape:window-x="0"
     inkscape:window-y="24"
     inkscape:window-maximized="1"
     units="cm"
     inkscape:showpageshadow="false" />
  <metadata
     id="metadata7">
    <rdf:RDF>
      <cc:Work
         rdf:about="">
        <dc:format>image/svg+xml</dc:format>
        <dc:type
           rdf:resource="http://purl.org/dc/dcmitype/StillImage" />
        <dc:title></dc:title>
      </cc:Work>
    </rdf:RDF>
  </metadata>
  <g
     inkscape:label="Camada 1"
     inkscape:groupmode="layer"
     id="layer1"
     transform="translate(517.71429,205.92352)">
    <path
       inkscape:connector-curvature="0"
       id="path4626"
       d="m -505.46954,-193.67884 0,711.75534 0,711.7553 499.7552818,0 499.7552782,0 0,-711.7553 0,-711.75534 -499.7552782,0 -499.7552818,0 z"
       style="opacity:1;fill:none;fill-opacity:1;stroke:#000000;stroke-width:24.48949623;stroke-miterlimit:4;stroke-dasharray:none" />
    <path
       style="fill:url(#radialGradient4610);fill-opacity:1"
       d="m -517.71429,-205.92342 0,724 0,723.99992 512.0000002,0 511.9999998,0 0,-723.99992 0,-724 -511.9999998,0 -512.0000002,0 z"
       id="path4608"
       inkscape:connector-curvature="0" />
    <path
       inkscape:connector-curvature="0"
       id="path4593"
       d="m -517.71429,-205.92342 0,724 0,723.99992 512.0000038,0 511.9999962,0 0,-723.99992 0,-724 -511.9999962,0 -512.0000038,0 z"
       style="opacity:0.44200003;fill:url(#radialGradient4606);fill-opacity:1" />
    <path
       style="fill:#800000"
       d="m -517.71429,1242.0763 0,-67.3106 495.003913,-733.75388 -398.320323,801.06448 -96.68359,0 z m 495.003913,-801.06448 0.0215,-0.0449 0.004,0.006 -0.0254,0.0391 z m -271.412113,801.06448 274.046873,-801.10355 0.0156,0.006 -162.212893,801.09765 -111.84961,0 z m 223.951171,0 53.359373,-800.63675 0.002,0.0117 49.703112,800.62505 -38.6074122,0 -64.4570328,0 z m 214.755859,0 -158.119136,-803.91214 269.746086,803.91214 -111.62695,0 z m -158.119136,-803.91214 -0.0176,-0.0527 0.002,-0.0274 0.0156,0.0801 z M 384.48298,1242.0763 -10.474056,436.87119 l 0.008,-0.006 516.751946,779.22851 0,25.9824 -121.80273,0 z M 506.28571,1024.922 -9.1303062,434.67588 506.28571,889.86533 l 0,135.05667 z M -9.1303062,434.67588 l -0.0215,-0.0195 -0.0156,-0.0234 0.0371,0.043 z m -508.5839838,561.85156 0,-127.60937 492.417973,-429.9961 -0.0117,0.0156 -492.406253,557.58984 z m 1024,-219.9375 L -7.0541262,431.9708 506.28571,687.42393 l 0,89.16601 z M -7.0541262,431.9708 l -0.0645,-0.0312 0.002,-0.01 0.0625,0.041 z m -510.6601638,321.66211 0,-84.29687 487.656253,-239.12696 -487.656253,323.42383 z m 487.656253,-323.42383 0.10156,-0.0684 0,0.0176 -0.10156,0.0508 z M 506.28571,601.02549 -5.3451462,425.87119 506.28571,529.47861 l 0,71.54688 z m -1024,-10.78906 0,-67.64844 486.730473,-95.69141 0.0176,0 -486.748053,163.33985 z m 1024,-133.03125 -511.2558562,-34.59961 511.2558562,-31.73438 0,66.33399 z m -1024,-4.45899 0,-63.23633 486.925783,33.00391 -486.925783,30.23242 z m 510.6054738,-31.9082 5.7793,-6.61914 -6.15235,3.07617 8.484381,-5.59375 505.2831952,-572.15038 0,132.988303 L 10.963445,405.08018 506.28571,76.586073 l 0,88.699197 -503.6992152,247.06834 -9.695311,8.48438 z m 0.94922,-0.4707 512.4453062,-171.98438 0,71.20313 -512.4453062,100.78125 z m -23.9785208,-1.22266 -487.576173,-98.74609 0,-67.9336 487.576173,166.67969 z m 0.66797,-0.26367 -488.244143,-242.87889 0,-84.925797 488.244143,327.804687 z m 19.8515608,-0.28711 310.6835962,-624.51756 108.58398,0 -419.2675762,624.51756 z m -17.5351508,-2.14063 -490.560553,-433.285127 0,-128.593803 490.560553,561.87893 z m 13.792971,-0.18359 126.007806,-622.19334 86.74609,0 -212.753896,622.19334 z m -3.26172,-0.74805 -38.605472,-621.44529 49.5136718,0 31.1484322,0 -42.056632,621.44529 z m -6.701181,-1.22851 -411.310543,-620.21678 107.13476,0 304.175783,620.21678 z m 3.25196,-0.9336 -207.810553,-619.28318 86.02539,0 121.785163,619.28318 z"
       id="path4386"
       inkscape:connector-curvature="0" />
    <path
       style="opacity:1;fill:none;fill-opacity:1;stroke:#ffffff;stroke-width:24.12838554;stroke-miterlimit:4;stroke-dasharray:none;stroke-opacity:1"
       d="m -484.08259,-177.38957 0,692.85931 0,692.85916 477.7953315,0 477.7953285,0 0,-692.85916 0,-692.85931 -477.7953285,0 -477.7953315,0 z"
       id="path4635"
       inkscape:connector-curvature="0" />
    <g
       id="g4311"
       transform="translate(-1116,0)">
      <path
         id="path4274"
         transform="translate(-517.71429,-205.92358)"
         d="m 1784.6621,42.416016 c 0,0 0.01,0.01754 0.01,0.01758 0,-6e-6 0,-0.0039 0,-0.0039 l -0.01,-0.01367 z m 0.01,0.01758 c -0.012,0.0099 -10.3781,8.303539 -22.2325,16.601562 -11.8614,8.3028 -58.7137,33.205256 -74.7265,40.322266 -16.0128,7.116656 -85.1139,45.371086 -103.502,56.638666 -18.3846,11.26845 -33.2109,28.46289 -33.2109,28.46289 l 6.2519,-18.08398 c 2.3721,-7.11666 2.3721,-32.6168 0,-45.66406 -2.3723,-13.04727 -8.8984,-29.060547 -8.8984,-29.060547 0,0 -9.7596,19.899957 -18.3965,32.328127 -24.1605,34.76625 -48.6265,59.0027 -61.6738,71.45703 -13.0472,12.45432 -62.2751,41.4884 -94.0078,83.00195 -14.5706,19.06473 -33.3552,41.08871 -40.6309,79.49805 -3.9883,21.05543 -4.6235,63.9246 1.3223,96.05664 l -108.7949,32.04492 158.6367,205.77539 -4.0469,144.20508 -52.1269,18.31836 42.8906,122.10156 282.6836,-99.29883 214.6523,76.25586 -3.9179,-150.25781 35.9609,-12.63477 45.0176,-152.97851 -57.1856,20.08203 131.3106,-171.29883 -111.1504,-33.36523 c 0.6086,-2.48616 1.2154,-5.01901 1.789,-7.26563 3.5728,-13.99335 3.5775,-45.64984 2.9844,-55.73242 -0.593,-10.0817 -11.8564,-45.0682 -16.0078,-53.37109 -4.1515,-8.3028 -9.8086,-28.09301 -9.8086,-36.48047 0,-8.3028 -0.011,-27.6124 0.9082,-35.88477 1.4826,-13.34373 -1.1933,-33.21094 -1.1933,-33.21094 0,0 -16.0077,8.88891 -24.3106,15.41211 -8.3028,6.52363 -24.9053,26.69054 -32.6152,37.95899 -7.7098,11.26845 -17.7989,35.59765 -17.7989,35.59765 0,0 2.9689,-23.72494 4.7481,-33.80664 1.7792,-10.08171 2.3613,-67.02965 2.3613,-81.26367 0,-14.23314 -11.255,-91.32275 -18.3711,-110.898434 -6.4835,-17.829751 -16.8935,-51.50881 -16.9101,-51.5625 z"
         style="fill:url(#radialGradient4286);stroke:#000000;stroke-width:20.00000191;stroke-miterlimit:4;stroke-dasharray:none"
         inkscape:connector-curvature="0" />
      <path
         inkscape:connector-curvature="0"
         id="path3984"
         style="fill:url(#radialGradient4145)"
         d="m 1258.2982,-136.88104 c 0,0 -10.1541,23.39143 -18.3959,35.7542 -5.6121,8.418072 -24.3131,26.492152 -30.6689,31.836442 -2.5713,2.16231 -8.0183,5.42731 -13.233,8.38067 1.1951,-1.17454 2.5554,-2.84524 4.2292,-5.11139 1.9548,-2.64652 4.1898,-5.87481 6.3829,-9.23677 4.386,-6.7241 8.5919,-13.81111 10.2491,-17.77333 3.5246,-8.428282 5.1632,-18.629612 5.1632,-18.629612 l 0.5968,-3.58057 -3.0876,1.89409 c 0,0 -18.4352,11.2763 -26.6727,15.983192 -3.9456,2.25465 -14.3918,7.05754 -24.8302,11.72798 -10.4383,4.67017 -20.922,9.26205 -25.4274,11.36436 -9.0441,4.22068 -45.5369,22.81942 -68.5237,40.50207 -7.6166,5.85902 -25.1136,17.99918 -42.3184,36.3506302 -9.2786,9.8968398 -33.8254,45.5961098 -39.98324,57.9117898 -3.31494,6.62993 -8.96554,18.07329 -13.77714,27.84021 -0.2786,0.56556 -0.454,0.89996 -0.7265,1.45305 0.9013,-3.17754 0.9017,-3.23919 1.946,-6.84984 3.7208,-12.86502 8.0219,-27.16618 10.06689,-32.17302 2.72813,-6.67902 9.67798,-24.4936 9.67798,-24.4936 l 2.30921,-5.94168 -4.92974,4.07358 c 0,0 -22.06694,18.22065 -32.30294,24.90865 -3.9464,2.57833 -6.1396,3.86901 -11.0269,6.9277 7.1582,-6.14118 14.6517,-12.73161 18.8633,-16.94322 9.6727,-9.67274 28.86738,-33.2786798 37.02548,-46.5735798 8.2166,-13.3899502 16.0434,-36.6706402 17.2799,-49.0386402 1.2366,-12.36626 -3.0357,-25.97246 -3.0357,-25.97246 l -3.2433,0.38919 c 0,0 -0.365,6.35692 -2.1795,13.12836 -3.1914,11.91022 -11.3426,22.05906 -20.00472,30.72033 -6.34619,6.34619 -36.89386,33.4661502 -49.42756,44.0823702 -12.5659,10.6441198 -38.3779,31.5730798 -60.3768,51.7887998 -22.169,20.37093 -30.8398,39.70247 -39.6197,54.797988 -8.7336,15.0153 -16.1863,44.93254 -19.1746,67.64209 -2.6378,20.0483 -1.0004,33.63183 4.2812,62.86806 l 0.3373,1.84221 1.7643,-0.54489 123.2179,-36.29831 0.5708,-0.15574 0.3373,-0.49301 145.84548,-212.8387678 145.5577,211.6703378 0.3373,0.49292 0.5708,0.15565 119.0935,35.72804 1.0378,0.31129 0.6746,-0.77841 c 0.022,0.0139 0.1803,-0.11806 0.3892,-0.57079 1.931,-4.18388 3.3726,-10.74963 4.5665,-17.85094 1.194,-7.10122 2.1029,-14.69877 2.6984,-20.65345 1.2506,-12.50577 -2.901,-40.5134 -6.6163,-51.6589 -1.7649,-5.29468 -4.273,-13.53731 -6.4087,-21.19756 -2.1357,-7.66059 -3.9035,-14.89933 -4.1774,-17.59109 -0.5963,-5.86103 0,-14.685698 0,-14.685698 l -3.1395,-0.90815 c 0,0 -1.631,3.108128 -3.8141,6.590338 -2.183,3.48238 -5.0919,7.38627 -6.7719,8.56229 -4.6099,3.22689 -23.8109,19.85298 -28.9041,25.58269 -1.6505,1.85694 -2.9755,3.96981 -4.1514,6.01954 0.1634,-1.57791 0.2084,-2.79474 0.493,-4.64436 0.5094,-3.31104 3.4312,-9.90556 6.7979,-15.98319 3.3667,-6.07744 7.2868,-11.90498 9.3405,-13.95934 4.9974,-4.99743 15.3728,-18.372378 19.226,-31.706518 2.4899,-8.6154 5.5525,-24.8825 5.5525,-24.8825 l 0.6228,-3.34705 -3.0357,1.55681 c 0,0 -7.2127,3.75008 -13.3106,8.79555 -1.9935,1.64959 -4.1358,4.49081 -6.5385,8.14707 -2.4027,3.65642 -4.9852,8.09448 -7.4985,12.73946 -5.0265,9.28995 -9.7643,19.39083 -12.1168,25.764918 -4.0194,10.89089 -18.1893,30.15093 -28.7488,39.69812 -6.5976,5.96496 -19.2514,16.5831 -23.585,20.23839 1.8881,-7.25103 9.3605,-35.95214 13.5695,-55.42145 4.8441,-22.403488 8.3287,-83.706368 8.3287,-97.634288 0,-7.0374798 -1.3428,-24.16225 -2.906,-40.7096 -0.7816,-8.27376 -1.6329,-16.37033 -2.3871,-22.93626 -0.7541,-6.56592 -1.3801,-11.50039 -1.8681,-13.7771 -1.8278,-8.52969 -8.3547,-30.38288 -8.3547,-30.38288 l -1.7124,-5.811932 -1.479,5.863822 c 0,0 -3.148,12.42381 -9.2891,22.0547 -11.019,17.28067 -26.9141,31.26705 -37.4405,38.03701 -8.5956,5.52828 -17.449,9.66141 -24.3899,12.58425 4.5877,-3.63942 9.7364,-7.7756 12.1692,-9.93782 5.5876,-4.96674 20.8488,-21.43735 28.6451,-31.03162 4.0339,-4.9649 9.6692,-14.42585 14.5819,-24.31136 4.9123,-9.88551 9.0711,-20.003832 9.8332,-26.672642 0.7024,-6.14555 0.5708,-22.41744 0.5708,-22.41744 l -3.1914,-0.64866 z" />
      <path
         inkscape:connector-curvature="0"
         id="path3986"
         sodipodi:nodetypes="ccccccccccccc"
         style="fill:#800000"
         d="m 1426.344,433.61312 -54.9279,19.30364 -1.7903,0.64866 -6.7979,8.87402 -39.1653,17.47251 16.6458,9.39285 -30.8328,14.70313 10.6834,30.21894 12.2459,59.59906 14.6473,-3.44559 0.1557,5.57833 35.0017,-12.29824 44.1347,-150.04835 z" />
      <path
         inkscape:connector-curvature="0"
         id="path3988"
         sodipodi:nodetypes="cccccccccccc"
         style="fill:#800000"
         d="m 863.02612,631.46279 -50.4913,17.72102 42.0585,119.76488 280.09378,-99.57009 -9.7294,-2.26476 22.8063,-6.59034 7.2983,-2.63169 -42.4989,-8.96122 -201.00618,54.80846 -32.0283,-71.12997 -16.6537,4.22556 0.1556,-5.37089 z" />
      <path
         inkscape:connector-curvature="0"
         id="path3980"
         sodipodi:nodetypes="cccccccccccccccccccccccccc"
         style="fill:url(#radialGradient4140)"
         d="m 1116.3853,-20.830738 -12.2782,38.90113 -137.17808,200.203988 -232.7895,68.52365 -2.3351,0.67464 1.479,1.91999 147.8161,191.74589 -5.2783,173.07704 10.6153,-3.03855 28.0739,67.75981 195.52158,-66.1083 226.6072,74.46089 0.9891,-157.13746 -1.4614,-26.81216 -9.8489,-10.03811 2.5288,-14.20436 -15.9099,-14.99002 33.1793,-12.78654 -15.8341,-9.637 147.197,-192.02492 1.453,-1.92007 -2.3093,-0.67456 -232.8417,-69.89875 -136.9165,-199.087858 -1.3752,-1.99786 10.9031,-36.90345 z" />
      <path
         inkscape:connector-curvature="0"
         id="path4046"
         sodipodi:nodetypes="cccccccccccccccccccccccccccccccccccccccccccccccccccccccccccccccccccccccccccccccccccccccccccccccccccccccccccccccc"
         style="fill:#800000"
         d="m 1105.477,16.070972 -1.3752,1.99785 -21.8463,31.88789 22.1838,357.097298 24.1823,-357.332728 -21.7687,-31.6542 -1.3752,-1.99786 z m 61.1032,88.836158 -61.2331,302.3551 89.3855,-261.40746 -28.1515,-40.94328 z m -122.311,0.46702 -28.0739,40.96945 87.284,260.10822 -59.2093,-301.08203 z m 174.8558,75.91882 -112.7368,226.61591 132.6613,-197.60552 -19.9271,-29.00777 z m -226.99958,0.20761 -19.771,28.85257 130.21978,196.35861 -110.45227,-225.21205 z m 277.20758,43.32987 -159.9888,181.16019 -2.3611,1.55681 1.7124,-0.85627 -1.6087,1.84221 2.6984,-2.36112 289.9209,-142.20935 -52.4629,-15.7495 -235.1263,155.93414 193.0364,-168.56897 -35.8318,-10.74178 z m -326.63948,0.57079 -35.3644,10.40433 194.17868,171.5075 -158.82038,-181.91009 z m -79.1102,23.27371 -52.1001,15.3606 289.38018,143.95329 -237.28008,-159.30866 z m -123.1133,36.24686 -6.3308,1.86811 -2.3351,0.67464 1.4789,1.91999 40.4498,52.46286 326.94458,66.21468 -360.21018,-123.1394 z m 732.09618,0.90807 -365.2153,122.57262 328.6362,-64.63205 41.4883,-54.12396 1.4529,-1.92008 -2.3092,-0.67455 -4.0476,-1.21954 z m -662.22528,103.50267 27.7103,35.96173 262.44508,-16.29448 -290.15628,-19.66725 z m 589.52048,1.55681 -292.1792,18.13608 264.5466,17.90326 27.6326,-36.03934 z m -292.2838,19.04467 235.3792,80.58123 15.8314,-6.11433 -10.8464,-25.79196 -240.3668,-48.67503 z m -7.1353,0.2854 -237.95148,46.78111 18.6034,24.12999 -0.078,2.72429 219.43088,-73.63513 0,0 z m 0.2855,0.90815 -220.69528,108.22002 -1.0898,38.86713 221.78518,-147.09238 z m 6.3568,0.49292 225.2905,151.24296 -1.0378,-39.6458 -224.2529,-111.59454 z m -0.5708,0.75251 228.7696,261.98296 -1.6087,-61.36304 -227.1565,-200.61381 z m -0.3633,0.62268 138.0588,281.46273 63.5683,22.57353 -201.6253,-304.03801 z m -0.8562,0.33727 49.0125,249.19118 39.2822,13.95935 -88.2956,-263.14268 z m -3.2692,0.2336 -224.51448,196.05342 -1.6865,60.09171 226.19738,-256.14077 z m 0.7265,0.57079 -208.64468,309.27854 65.8241,-22.05383 142.81968,-287.22645 z m 0.7265,0 -92.7862,271.23455 41.3008,-16.94932 51.4898,-254.28348 z m 0.9081,0.12967 -16.2186,243.34899 17.2981,-4.1647 13.5547,-3.46154 -14.6334,-235.71927 z" />
      <path
         inkscape:connector-curvature="0"
         id="path4000"
         style="fill:#decd87"
         d="m 1266.9569,-163.49352 c 0,0 -10.3747,8.3028 -22.2361,16.60577 -11.8614,8.3028 -58.7123,33.20369 -74.7251,40.3207 -16.0128,7.116662 -85.1146,45.372882 -103.5027,56.640462 -18.3846,11.26845 -33.2115,28.4628 -33.2115,28.4628 l 6.2531,-18.08463 c 2.3721,-7.11666 2.3721,-32.61773 0,-45.66499 -2.3723,-13.04727 -8.8994,-29.060102 -8.8994,-29.060102 0,0 -9.759,19.900942 -18.3959,32.329112 -24.16048,34.76626 -48.62708,59.00175 -61.67438,71.45608 -13.0472,12.4543202 -62.2742,41.48826 -94.0069,83.00181 -14.5706,19.06473 -33.3563,41.089778 -40.632,79.499118 -3.9883,21.05543 -4.6225,63.92402 1.3233,96.05606 l -108.7955,32.04398 158.6372,205.77586 -4.0476,144.20616 -52.1262,18.31832 42.8895,122.10176 282.68348,-99.29978 214.6525,76.25627 -3.9179,-150.25763 35.9617,-12.6357 45.0171,-152.97816 -57.1854,20.0823 131.3098,-171.29822 -111.1499,-33.36675 c 0.6086,-2.48616 1.2167,-5.01836 1.7903,-7.26498 3.5728,-13.99335 3.5769,-45.65017 2.9838,-55.73275 -0.593,-10.0817 -11.857,-45.06856 -16.0084,-53.37145 -4.1515,-8.3028 -9.8079,-28.09308 -9.8079,-36.480548 0,-8.3028 -0.011,-27.61088 0.9081,-35.88325 1.4826,-13.34373 -1.1935,-33.21154 -1.1935,-33.21154 0,0 -16.0085,8.88885 -24.3114,15.41205 -8.3028,6.52363 -24.9043,26.69095 -32.6142,37.9594 -7.7098,11.26845 -17.7995,35.598118 -17.7995,35.598118 0,0 2.9689,-23.726258 4.7481,-33.807958 1.7792,-10.08171 2.3611,-67.02997 2.3611,-81.2639898 0,-14.2331402 -11.2536,-91.3212702 -18.3697,-110.8969622 -6.4887,-17.84397 -16.9171,-51.5813 -16.9171,-51.5813 z m -7.1093,27.26907 c 0,0 0.089,16.46102 -0.5708,22.23607 -1.4066,12.30522 -16.3424,40.638972 -24.0524,50.127732 -7.7098,9.48876 -23.1255,26.07971 -28.4628,30.82409 -4.7945,4.26184 -21.0423,16.91706 -21.0423,16.91706 0,0 19.2147,-6.57996 35.2868,-16.91706 10.7601,-6.92012 26.7459,-21.01008 37.9332,-38.55583 6.3475,-9.95527 9.4967,-22.52121 9.4967,-22.52121 0,0 6.5236,21.95094 8.3028,30.25295 1.7791,8.3028 7.1352,63.44618022 7.1352,77.08638 0,13.64021 -3.5583,75.32937 -8.3028,97.268098 -4.7445,21.94309 -14.8409,60.48061 -14.8409,60.48061 0,0 19.8242,-16.67814 27.6065,-23.71493 10.8229,-9.78523 24.9619,-28.89006 29.1892,-40.34598 4.5962,-12.454328 18.8877,-40.345988 25.6611,-45.950998 5.9102,-4.89044 13.0246,-8.5882 13.0246,-8.5882 0,0 -3.0661,16.3032 -5.5005,24.72642 -3.7105,12.83886 -14.0666,26.261068 -18.811,31.005448 -4.7445,4.74456 -15.4199,23.14031 -16.6058,30.85025 -1.1861,7.70977 -1.1935,13.6219 -1.1935,13.6219 0,0 2.9875,-8.28423 7.732,-13.6219 4.7444,-5.33749 24.4962,-22.46365 28.6189,-25.34987 4.4479,-3.11362 11.1053,-15.723328 11.1053,-15.723328 0,0 -0.6239,8.839138 0,14.970818 0.6239,6.13177 7.1056,28.47763 10.6642,39.15314 3.5584,10.67464 7.7246,39.12348 6.5385,50.984 -1.1862,11.86139 -3.5509,30.24946 -7.1093,37.95941 -0.028,0.0619 -0.076,0.1205 -0.1297,0.18172 L 1252.4273,205.37814 1105.4919,-8.2890378 958.26872,206.54657 835.05082,242.8196 c -5.2729,-29.19002 -6.8942,-42.48929 -4.2811,-62.34837 2.9653,-22.53603 10.5159,-52.48902 18.9671,-67.01951 8.8504,-15.215848 17.3652,-34.245688 39.3083,-54.409088 21.9431,-20.16428 47.7228,-41.06188 60.3254,-51.7365198 12.5816,-10.6572 42.98108,-37.6359002 49.53131,-44.1861302 8.74847,-8.74846 17.13247,-19.08303 20.44597,-31.44668 1.8673,-6.96903 2.2313,-13.46581 2.2313,-13.46581 0,0 4.144,13.46233 2.9579,25.32371 -1.1861,11.86139 -9.0405,35.29032 -17.047,48.3375802 -8.00622,13.04727 -27.27688,36.7735298 -36.76568,46.2622998 -9.4887,9.48876 -36.7657,32.01781 -36.7657,32.01781 0,0 19.8862,-12.16919 31.0055,-19.43356 10.4732,-6.8426 32.45903,-25.03771 32.45903,-25.03771 0,0 -6.94236,17.8335 -9.65183,24.46744 -4.2997,10.5264 -17.047,56.770378 -17.047,56.770378 -0.019,0.0392 15.9257,-32.422398 22.54738,-45.664988 5.93061,-11.86139 30.8276,-48.03413 39.7234,-57.5228898 17.0706,-18.2093202 34.4009,-30.2381302 42.1109,-36.1692602 22.7584,-17.50651 59.3165,-36.16926 68.2123,-40.3207 8.8959,-4.15144 42.0847,-18.39941 50.3876,-23.14379 8.3028,-4.744472 26.6988,-16.008472 26.6988,-16.008472 0,0 -1.6494,10.08606 -5.0595,18.239842 -3.0698,7.34066 -16.8909,28.61539 -21.0423,32.17302 -4.1515,3.55833 -10.6642,9.18532 -10.6642,9.18532 0,0 20.2532,-10.29969 26.6726,-15.69718 6.5237,-5.48582 25.0491,-23.2772 30.9802,-32.173022 8.4258,-12.63832 18.5511,-36.03934 18.5511,-36.03934 z m -154.3559,155.236572 137.2566,199.550008 233.4086,70.08098 -132.3038,172.59746 -465.08198,163.3546 4.0217,-144.00561 -148.1823,-192.20804 233.3562,-68.70589 137.51818,-200.666128 z m 305.2065,431.144858 -4.0476,13.72566 -576.80728,202.58446 -3.84,-10.94931 584.69848,-205.36604 z m -7.6542,25.81638 -22.0799,74.54372 -526.83478,185.07533 -20.8871,-59.46826 569.80528,-200.15167 z m -25.6611,86.63443 -3.7882,12.76562 -512.51698,180.04408 -3.5806,-10.1968 2.3351,-0.83029 0,0.36326 517.54828,-182.14552 z m -45.6136,40.0347 3.1655,122.28487 -174.699,-62.03708 171.5337,-60.24692 z" />
    </g>
    <g
       id="g4362"
       style="opacity:1"
       transform="matrix(0.96669016,0,0,0.96669016,-0.28444615,15.312996)"
       clip-path="url(#clipPath4368)">
      <path
         style="fill:#ffffff"
         inkscape:connector-curvature="0"
         id="path4350"
         d="m 71.016951,132.23088 0.0037,0.002 c -0.867792,0 -6.978016,2.68295 -13.577005,5.94551 l -12.001711,5.9201 -12.43556,-1.73864 c -12.027728,-1.69879 -12.555428,-1.72689 -15.179525,-0.21597 -1.493523,0.86 -4.865078,2.77509 -7.493542,4.2359 -2.6285569,1.46082 -7.847201,4.57969 -11.5952731,6.92372 l -6.8147527,4.23591 -7.5226272,-0.92377 c -9.160178,-1.12351 -22.787639,-1.15835 -27.506181,-0.0817 -4.974075,1.13512 -10.747459,8.10041 -18.11054,21.77842 -1.160122,2.15512 -2.856493,4.83836 -3.774927,5.97274 -1.473824,1.82005 -1.926443,1.93836 -3.720474,0.97821 -1.272185,-0.68091 -5.642923,-1.1055 -11.675092,-1.11433 -11.91994,-0.0173 -14.767605,1.03435 -19.333756,7.11428 -1.831485,2.43872 -6.567775,8.44377 -10.535325,13.33384 -3.96764,4.88998 -9.4985,12.20234 -12.2722,16.26486 -2.77426,4.06214 -6.62817,9.73126 -8.58063,12.59881 l -3.55721,5.21231 -0.97819,14.77303 c -0.53113,8.1242 -1.70882,18.28927 -2.63338,22.58966 -1.34132,6.23976 -1.75705,12.55383 -2.09073,31.1994 -0.7312,40.86771 3.13934,68.58823 11.02353,78.93408 1.18837,1.55968 5.613,7.90733 9.85653,14.11968 l 7.73857,11.29574 0.65157,24.76388 c 0.19941,7.35295 0.47008,14.21071 0.73324,19.38642 -0.33099,3.12634 -0.58002,6.90027 -0.73324,11.4863 -1.31252,39.2899 -41.5675,205.07739 -45.37169,317.93955 -0.0223,0.67898 -0.0584,1.35759 -0.0817,2.03629 l 233.649781,0 C 70.372077,695.69277 57.29694,571.53638 53.991731,452.12327 c 0.168466,-3.3395 0.325224,-7.16724 0.515434,-11.86562 0.794384,-19.61567 1.417793,-27.55295 2.362988,-29.81465 1.702782,-4.07534 11.955436,-17.55107 21.558848,-28.37547 4.245294,-4.78461 8.63982,-10.08414 9.774853,-11.75672 1.134847,-1.67268 3.027096,-4.45892 4.208683,-6.21774 2.163485,-3.22028 4.540133,-9.7917 10.482633,-28.97437 2.79386,-9.01912 3.9656,-11.42278 8.66063,-17.81112 2.9851,-4.06215 6.91232,-9.73127 8.74399,-12.59882 1.83184,-2.86737 4.01131,-5.99697 4.83301,-6.95276 0.82161,-0.95579 3.13107,-4.77688 5.13241,-8.49903 l 3.6388,-6.76038 0.78769,-17.56793 c 0.42391,-9.65916 1.14953,-20.10944 1.62789,-23.2158 0.47827,-3.10636 1.29207,-10.92765 1.7931,-17.37918 0.50085,-6.45161 1.09694,-12.27443 1.33036,-12.9509 0.23332,-0.67627 -0.93117,-3.24789 -2.57894,-5.72954 -1.64777,-2.48165 -4.36498,-7.23103 -6.02901,-10.53531 -2.32257,-4.61224 -4.18694,-6.9154 -8.09066,-9.96545 -2.79682,-2.18532 -6.1812,-4.23869 -7.49539,-4.56076 -1.95023,-0.47788 -2.38845,-1.09008 -2.38845,-3.23228 0,-1.44363 -0.78286,-4.15371 -1.73855,-6.02719 -2.36494,-4.63564 -2.13069,-6.2058 1.13968,-8.25583 3.80141,-2.38287 3.99236,-5.71372 0.67879,-10.94184 -1.71366,-2.70392 -4.09133,-4.88979 -7.35751,-6.73316 -6.876544,-3.88076 -31.253323,-13.1705 -34.565966,-13.1705 z" />
      <path
         d="m 72.236971,127.22681 c -0.881056,0 -7.084392,2.72505 -13.784248,6.03748 l -12.185158,6.00984 -12.626677,-1.76437 c -12.211573,-1.72476 -12.74649,-1.75457 -15.410697,-0.22055 -1.516352,0.87313 -4.940197,2.8175 -7.608836,4.30065 -2.6687351,1.48314 -7.9665807,4.65 -11.7719426,7.02987 l -6.9196717,4.30064 -7.6363847,-0.93732 c -9.300193,-1.14068 -23.136329,-1.17577 -27.926994,-0.0826 -5.050105,1.15247 -10.91249,8.2228 -18.388116,22.10988 -1.177855,2.18807 -2.899495,4.91331 -3.831967,6.06504 -1.496352,1.84786 -1.955323,1.9673 -3.77687,0.99247 -1.291631,-0.69132 -5.729647,-1.12135 -11.85402,-1.1303 -12.102138,-0.0176 -14.992764,1.05001 -19.628709,7.22288 -1.85948,2.47599 -6.66825,8.57131 -10.69645,13.53613 -4.02829,4.96473 -9.64453,12.38894 -12.46063,16.51354 -2.81667,4.12424 -6.72929,9.8804 -8.71159,12.79178 l -3.6114,5.29313 -0.99248,14.99748 c -0.53925,8.24838 -1.73541,18.57019 -2.67411,22.93633 -1.36182,6.33513 -1.784,12.74554 -2.12278,31.67612 -0.74237,41.49238 3.18799,69.63636 11.19268,80.14034 1.20654,1.58352 5.69842,8.0279 10.00682,14.33521 l 7.85695,11.46816 0.66162,25.14203 c 0.20245,7.46535 0.47718,14.4286 0.74435,19.68343 -0.33604,3.17412 -0.58878,7.00543 -0.74435,11.66156 -1.33258,39.89045 -42.2037,208.21188 -46.06605,322.79916 -0.0226,0.68936 -0.0594,1.37861 -0.0831,2.06769 l 237.221897,0 C 71.57875,699.2996 58.303003,573.24508 54.947273,452.00673 c 0.171042,-3.39055 0.330573,-7.27723 0.52369,-12.04743 0.806526,-19.9155 1.438803,-27.97321 2.398447,-30.26949 1.728809,-4.13763 12.13893,-17.81923 21.889132,-28.80908 4.310183,-4.85775 8.772351,-10.2389 9.924735,-11.93705 1.152193,-1.69824 3.073365,-4.52745 4.273012,-6.31315 2.196555,-3.2695 4.608397,-9.93982 10.641731,-29.4157 2.83657,-9.15698 4.02744,-11.59836 8.79424,-18.08433 3.03082,-4.12424 7.01722,-9.8804 8.87688,-12.79178 1.85985,-2.91119 4.07301,-6.08711 4.90727,-7.0575 0.83417,-0.9704 3.17837,-4.84983 5.2103,-8.62886 l 3.69413,-6.86449 0.79955,-17.83621 c 0.43038,-9.80681 1.16842,-20.41741 1.65409,-23.57125 0.48558,-3.15384 1.31078,-11.09362 1.81947,-17.64376 0.5085,-6.55023 1.11389,-12.46347 1.35088,-13.15027 0.23688,-0.68661 -0.94607,-3.29733 -2.61902,-5.81691 -1.67296,-2.51959 -4.43076,-7.34166 -6.12022,-10.69645 -2.35807,-4.68274 -4.25179,-7.02052 -8.21517,-10.11719 -2.83959,-2.21873 -6.27457,-4.30444 -7.60884,-4.63142 -1.98004,-0.48519 -2.426,-1.10569 -2.426,-3.28064 0,-1.46569 -0.79407,-4.21801 -1.76437,-6.12012 -2.40109,-4.70651 -2.16259,-6.29938 1.15776,-8.38074 3.85952,-2.41929 4.05348,-5.80163 0.68926,-11.10967 -1.73985,-2.74525 -4.1548,-4.96538 -7.47091,-6.83693 -6.98165,-3.94008 -31.730845,-13.37103 -35.094122,-13.37103 z m -1.571448,6.64391 c 1.666167,-0.16924 8.911789,2.25429 14.501244,4.87953 0.970303,0.45581 4.543302,1.6573 7.939694,2.67411 6.347867,1.90042 10.145489,3.82245 10.145489,5.12766 0,0.40803 -1.49012,1.78107 -3.335726,3.06007 -3.924421,2.71958 -5.012745,2.77722 -8.573668,0.49622 -3.077894,-1.97145 -6.825519,-2.09514 -18.746615,-0.68921 l -8.463477,0.99248 -2.453448,-2.97733 c -1.360688,-1.64041 -2.495523,-3.47441 -2.508825,-4.05253 -0.01981,-0.88831 7.648083,-7.3093 11.247403,-9.42832 0.05943,-0.0348 0.136984,-0.0714 0.248024,-0.0826 z m -46.259449,8.60131 c 1.810698,-0.0667 4.43462,0.15989 9.069905,0.63407 10.318138,1.05549 12.346483,1.849 14.307844,5.51361 0.632844,1.18247 -0.110569,2.93675 -3.170349,7.58128 -3.950742,5.99682 -4.045461,6.07192 -8.628858,6.58882 -4.549434,0.51302 -14.034253,3.9446 -15.796554,5.70663 -0.492557,0.49257 -1.24644,5.40728 -1.654091,10.9172 -1.443425,19.50606 -2.609299,40.16404 -2.97742,52.54543 l -0.358403,12.54366 3.087611,4.05254 c 1.700507,2.22683 2.860814,4.61877 2.591563,5.32067 -0.592088,1.54248 -0.751808,1.53201 -6.092674,-0.24811 -2.329765,-0.77654 -4.659153,-2.1608 -5.1552008,-3.08761 -0.9252079,-1.72872 -0.7489778,-6.98072 0.8821878,-25.83167 0.50369,-5.82238 0.936812,-22.25329 0.937284,-36.52812 l 0,-25.9694 -3.0600635,-2.86704 c -1.6784311,-1.58296 -3.0475161,-3.21497 -3.0325158,-3.6114 0.083021,-2.1557 8.0229963,-8.60961 14.8871003,-12.13043 1.354746,-0.69483 2.352125,-1.06362 4.162823,-1.13031 z m 25.390149,14.00501 c 1.59758,-0.0865 5.250391,1.20163 17.285263,5.872 3.639038,1.4122 11.578542,4.43651 17.643762,6.72665 30.626112,11.56439 31.182732,11.91535 24.535412,15.71354 -3.20591,1.8322 -3.34969,1.83579 -6.80929,0.27568 -2.9944,-1.35031 -4.853967,-1.51617 -12.239875,-0.99247 -10.509652,0.74505 -11.316273,0.24245 -10.420971,-6.50608 l 0.57888,-4.35575 -4.107632,-1.81947 c -2.257972,-0.9988 -4.753873,-1.8125 -5.541153,-1.81947 -1.195969,-0.0104 -13.639905,-4.36453 -18.773974,-6.56127 -1.805604,-0.77248 -2.678168,0.77266 -4.24556,7.58128 -1.002002,4.35236 -0.955303,5.79371 0.413594,11.46817 2.751283,11.40589 5.830215,15.88523 15.217297,22.22027 3.864891,2.60807 9.361797,5.17454 15.658814,7.27798 5.337092,1.78286 10.696448,4.11858 11.909681,5.2104 2.392503,2.15344 4.768401,3.50724 12.571009,7.14014 2.78988,1.29899 5.07256,2.89883 5.07256,3.5563 0,0.6575 -1.6872,2.26919 -3.74922,3.58385 -5.896353,3.75904 -7.652993,5.59634 -6.974866,7.22289 0.514727,1.23445 5.726626,9.19188 8.518666,13.01253 1.70023,2.32647 -0.88521,3.41365 -5.70672,2.42599 -5.803706,-1.1889 -6.809671,-0.48477 -4.741703,3.30818 1.246441,2.28609 1.612863,4.80274 1.571353,10.72381 -0.03019,4.25113 -0.456141,8.14772 -0.964831,8.65641 -1.782395,1.7823 -18.173961,-14.25219 -22.991985,-22.49576 -0.654071,-1.11907 -1.083325,-5.54209 -1.10276,-11.33042 -0.03113,-9.26264 0.06038,-9.64265 3.446015,-16.62393 3.484506,-7.18373 3.759041,-9.60491 1.075212,-9.62095 -2.61647,-0.0154 -19.549463,-8.96452 -23.90144,-12.62668 -4.538301,-3.81876 -9.73605,-10.37852 -11.661562,-14.72105 -0.967944,-2.18344 -1.993249,-6.79279 -2.260613,-10.25494 l -0.468595,-6.28551 4.603869,-7.66393 c 2.54628,-4.21536 5.2486,-7.9062 5.982388,-8.18772 0.161985,-0.0621 0.350669,-0.0979 0.57888,-0.11027 z m -72.421312,2.17787 c 8.634046,0.0368 11.526653,0.43244 16.3758109,1.87466 7.7288394,2.29873 9.1179248,3.31941 8.7665967,6.3407 l -0.2755717,2.26061 -14.8871009,0.0552 -14.887101,0.0551 -2.315709,2.75685 c -4.723682,5.67879 -6.285602,8.03526 -6.285602,9.48322 0,0.81742 0.838226,5.52011 1.84702,10.44833 4.766514,23.28349 6.666648,36.23659 8.298096,56.57003 1.330122,16.58054 1.550504,17.86075 3.997347,22.13726 1.428615,2.49684 2.329012,4.7834 2.012401,5.1001 -1.044927,1.04493 -2.42656,0.5721 -7.332982,-2.50873 -2.668641,-1.6756 -5.18407,-3.15912 -5.596438,-3.30819 -0.412272,-0.14906 -1.295875,-6.21899 -1.957398,-13.48046 -0.661335,-7.26185 -1.800603,-17.77018 -2.536279,-23.35049 -0.735488,-5.57983 -1.769659,-16.69562 -2.288067,-24.70145 -0.518595,-8.00582 -1.224176,-15.53617 -1.571447,-16.73431 -0.663222,-2.28759 -2.073062,-3.1977 -9.649256,-6.2856 -2.547412,-1.03823 -4.631417,-2.43883 -4.631417,-3.11516 0,-1.38399 10.897395,-19.24757 13.315369,-21.83442 1.403143,-1.50087 3.000912,-1.67739 15.521077,-1.73683 1.490314,-0.006 2.846757,-0.0328 4.080179,-0.0275 z m -54.005837,29.11193 c 4.14386,0.0111 8.209322,0.31771 11.440804,0.96492 10.824753,2.16797 14.916346,3.78866 16.29279,6.45098 2.67166,5.16633 0.957945,7.89979 -3.776777,6.03749 -3.244312,-1.27617 -13.366314,-1.20041 -17.560741,0.13784 -7.848748,2.50383 -7.360718,1.88749 -7.360718,9.34566 0,5.78833 0.726808,12.07667 2.315708,20.40043 0.206703,1.08285 1.508522,3.2694 2.922137,4.87953 4.27122,4.86463 5.203409,8.66763 5.734269,23.40521 0.267647,7.42779 0.891528,14.25217 1.378425,15.16257 0.486991,0.91002 0.882188,2.44478 0.882188,3.41847 0,0.9737 -0.329723,1.97673 -0.744355,2.23306 -2.149101,1.32815 -8.077431,-9.55208 -8.077431,-14.83143 0,-7.23081 -2.07344,-16.96451 -4.631512,-21.69573 -1.44286,-2.66865 -4.957461,-9.21878 -7.801766,-14.55597 -2.844398,-5.33719 -6.121447,-10.89456 -7.305528,-12.35026 l -2.17797,-2.64656 -0.937283,2.48118 c -0.524256,1.36588 -0.964832,3.63989 -0.964832,5.04502 0,1.48974 -0.807375,3.31006 -1.929945,4.35574 -1.140217,1.06219 -2.129197,3.31724 -2.425997,5.54126 l -0.49614,3.74931 -12.35026,0 0.19294,2.61902 c 0.41415,5.64417 4.25414,15.64089 7.52618,19.60135 1.81373,2.19533 3.77291,5.58069 4.35567,7.5261 0.9269,3.09356 0.86246,3.6263 -0.44105,4.35575 -0.81973,0.45876 -1.47984,1.71683 -1.48861,2.7844 -0.009,1.06757 -0.40549,2.52524 -0.8822,3.25308 -0.71747,1.09531 -1.37465,0.75344 -3.74923,-2.01249 l -2.86714,-3.33573 -7.4159,2.23307 c -4.08838,1.23144 -8.08979,2.23306 -8.87697,2.23306 -1.82165,0 -1.95967,-1.86947 -1.81948,-23.7637 l 0.11028,-17.14752 5.04492,-6.20287 c 2.7695,-3.41525 6.84241,-8.68508 9.07,-11.68893 2.22769,-3.00383 5.64352,-7.36118 7.5812,-9.70397 1.93777,-2.34278 5.14973,-6.68787 7.14024,-9.64925 2.167875,-3.22497 4.606228,-5.74918 6.092485,-6.31315 3.95546,-1.5007 11.095513,-2.3342 18.002259,-2.31571 z M 57.768086,259.2787 c 4.196691,-0.0291 5.769271,0.44729 9.814354,2.50873 5.019444,2.55798 5.320394,2.92138 7.277981,8.38074 2.470146,6.88816 3.381202,15.89561 2.067685,20.73155 -1.967399,7.24346 -15.606927,23.81276 -28.25719,34.34978 -5.178125,4.31339 -6.500511,5.97399 -7.719121,9.67661 -2.692509,8.18055 -5.965313,14.13426 -10.035114,18.22302 -4.275938,4.2949 -8.368853,6.14239 -17.257905,7.77422 -10.3822907,1.90607 -13.73424695,1.13021 -17.6984801,-4.02499 -6.0644649,-7.88432 -5.9067261,-7.24553 -5.3483183,-22.30235 0.5479359,-14.77484 1.2208744,-17.84282 6.4234349,-28.97419 2.88826748,-6.17956 3.21468934,-6.53645 8.077526,-8.60131 8.8170695,-3.74394 9.3388725,-4.1781 13.4531085,-11.6342 5.336903,-9.67096 10.097379,-14.30407 21.282517,-20.59382 8.889524,-4.99869 9.726617,-5.26935 15.934293,-5.45851 0.721241,-0.022 1.3855,-0.051 1.984946,-0.0551 z m -163.729806,34.846 c 0.61379,-0.0266 1.09493,0.007 1.43352,0.13784 1.30417,0.50081 1.30427,0.78602 0,3.30818 -0.78087,1.50938 -1.15814,2.97704 -0.85455,3.28063 0.3034,0.30355 3.00242,0.6152 6.009749,0.68921 6.609383,0.16259 24.383524,4.9568 25.859027,6.97477 1.128703,1.54361 0.789828,3.43215 -1.847114,9.92473 -2.539392,6.25239 -2.293538,6.40542 12.516297,6.47854 15.293714,0.0754 21.849509,0.84223 23.819361,2.81194 0.784922,0.78487 1.766263,3.88225 2.177876,6.89203 0.660203,4.82708 0.480388,6.00852 -1.350783,9.97945 -3.025534,6.56108 -9.082452,12.78706 -18.856994,19.32493 -8.404136,5.622 -14.670116,8.9983 -27.072259,14.6937 -6.076352,2.79043 -6.078429,2.79854 -4.328203,4.54877 0.964548,0.96465 4.281032,3.05846 7.360719,4.63142 3.079685,1.57314 5.737476,3.26308 5.89965,3.74932 0.161985,0.48626 -1.502201,3.18715 -3.694133,6.00984 -2.191933,2.8228 -3.997347,5.6204 -3.997347,6.23041 0,1.574 1.031436,2.25751 11.909681,7.9396 5.337091,2.78789 10.059642,5.38162 10.475689,5.76173 0.416141,0.38005 -0.537936,3.08779 -2.095233,6.00983 -2.797039,5.24747 -2.886475,7.19535 -0.358403,7.19535 1.985419,0 11.011549,4.85727 14.418223,7.74667 l 3.060064,2.56382 -3.942252,4.57632 c -2.15514,2.51317 -6.495041,6.1589 -9.649256,8.10508 -18.461705,11.39269 -20.213627,12.67479 -19.049452,13.83897 0.07642,0.077 1.409558,0.16174 3.390919,0.24811 4.808968,1.44994 13.941799,4.83671 13.756889,9.67662 -0.288968,7.54912 -5.599172,9.8936 -20.041925,10.58607 0,0 11.924776,10.29926 11.082305,18.33245 -0.842847,8.04026 -17.738103,11.58798 -14.77672,16.70601 3.175914,5.48832 25.699588,12.55026 25.25241,24.20521 -0.5052,13.17953 -29.627974,21.26366 -30.573276,25.11467 0,0 19.765504,11.35402 17.864521,22.38538 -1.898718,11.01627 -26.051483,25.39014 -26.051483,25.39014 8.924619,9.38671 14.995594,8.10621 13.701227,21.97217 -3.161291,10.2502 -20.262684,13.56352 -20.262684,13.56352 l 13.756889,69.49956 c 0,0 -38.163049,54.17566 -32.944079,-4.60387 5.95106,-67.02313 25.52034,-210.32516 26.409982,-253.29775 l 0.468594,0 0.441142,-15.43805 c 0.233495,-8.49103 0.710957,-18.24284 1.047568,-21.69574 0.81681,-8.38215 -0.708505,-14.79936 -4.107726,-17.31262 -1.914,-1.41522 -2.63109,-2.81751 -3.03243,-5.89956 -0.6234,-4.78793 -1.6437,-7.43468 -4.02498,-10.55871 -3.74659,-4.91491 -12.80781,-17.41262 -14.30785,-19.73908 -1.75767,-2.72572 -4.98424,-13.31632 -8.13261,-26.68641 -3.48074,-14.7805 -4.83284,-41.29331 -2.31572,-45.15659 2.21402,-3.39819 19.62211,-10.4389 25.55525,-10.69645 z"
         id="path2875"
         inkscape:connector-curvature="0" />
    </g>
    <path
       style="color:#000000;font-style:normal;font-variant:normal;font-weight:normal;font-stretch:normal;font-size:medium;line-height:normal;font-family:sans-serif;text-indent:0;text-align:start;text-decoration:none;text-decoration-line:none;text-decoration-style:solid;text-decoration-color:#000000;letter-spacing:normal;word-spacing:normal;text-transform:none;direction:ltr;block-progression:tb;writing-mode:lr-tb;baseline-shift:baseline;text-anchor:start;white-space:normal;clip-rule:nonzero;display:inline;overflow:visible;visibility:visible;opacity:1;isolation:auto;mix-blend-mode:normal;color-interpolation:sRGB;color-interpolation-filters:linearRGB;solid-color:#000000;solid-opacity:1;fill:#000000;fill-opacity:1;fill-rule:nonzero;stroke:none;stroke-width:24.48949432;stroke-linecap:butt;stroke-linejoin:miter;stroke-miterlimit:4;stroke-dasharray:none;stroke-dashoffset:0;stroke-opacity:1;color-rendering:auto;image-rendering:auto;shape-rendering:auto;text-rendering:auto;enable-background:accumulate"
       d="m -517.71484,-205.92383 0,12.24414 0,711.75586 0,724.00003 511.9999962,0 512.0000038,0 0,-724.00003 0,-724 -512.0000038,0 -511.9999962,0 z m 24.49023,24.49024 487.5097662,0 487.5117238,0 0,699.50976 0,699.51173 -487.5117238,0 -487.5097662,0 0,-699.51173 0,-699.50976 z"
       id="path4624"
       inkscape:connector-curvature="0" />
    <g
       id="g4310"
       transform="translate(-2.0000001,2.0000001)">
      <g
         id="g4295">
        <path
           style="color:#000000;font-style:normal;font-variant:normal;font-weight:normal;font-stretch:normal;font-size:medium;line-height:125%;font-family:ChunkFive;-inkscape-font-specification:ChunkFive;text-indent:0;text-align:start;text-decoration:none;text-decoration-line:none;text-decoration-style:solid;text-decoration-color:#000000;letter-spacing:0px;word-spacing:0px;text-transform:none;direction:ltr;block-progression:tb;writing-mode:lr-tb;baseline-shift:baseline;text-anchor:start;white-space:normal;clip-rule:nonzero;display:inline;overflow:visible;visibility:visible;opacity:1;isolation:auto;mix-blend-mode:normal;color-interpolation:sRGB;color-interpolation-filters:linearRGB;solid-color:#000000;solid-opacity:1;fill:#000000;fill-opacity:1;fill-rule:nonzero;stroke:none;stroke-width:8.00000095;stroke-linecap:butt;stroke-linejoin:miter;stroke-miterlimit:4;stroke-dasharray:none;stroke-dashoffset:0;stroke-opacity:1;color-rendering:auto;image-rendering:auto;shape-rendering:auto;text-rendering:auto;enable-background:accumulate"
           d="m -237.01758,667.20117 -15.02539,5.2461 -0.66015,1.74414 c -2.07019,5.46474 -3.31967,6.13233 -5.99805,8.84961 l -2.63477,2.67187 9.8086,10.98633 2.94922,-2.89063 3.50976,10.05079 -5.33008,1.86132 5.11328,14.64063 28.87305,-10.08399 -5.11328,-14.64062 -4.95703,1.73242 -10.53516,-30.16797 z m -4.91601,10.18945 10.37304,29.70313 -3.47851,1.21484 -10.14063,-29.0332 -1.92578,1.88672 c 0.36466,-0.67241 0.71089,-1.54357 1.06445,-2.33789 l 4.10743,-1.4336 z"
           id="path4229"
           inkscape:connector-curvature="0" />
        <path
           style="color:#000000;font-style:normal;font-variant:normal;font-weight:normal;font-stretch:normal;font-size:medium;line-height:125%;font-family:ChunkFive;-inkscape-font-specification:ChunkFive;text-indent:0;text-align:start;text-decoration:none;text-decoration-line:none;text-decoration-style:solid;text-decoration-color:#000000;letter-spacing:0px;word-spacing:0px;text-transform:none;direction:ltr;block-progression:tb;writing-mode:lr-tb;baseline-shift:baseline;text-anchor:start;white-space:normal;clip-rule:nonzero;display:inline;overflow:visible;visibility:visible;opacity:1;isolation:auto;mix-blend-mode:normal;color-interpolation:sRGB;color-interpolation-filters:linearRGB;solid-color:#000000;solid-opacity:1;fill:#000000;fill-opacity:1;fill-rule:nonzero;stroke:none;stroke-width:8.00000095;stroke-linecap:butt;stroke-linejoin:miter;stroke-miterlimit:4;stroke-dasharray:none;stroke-dashoffset:0;stroke-opacity:1;color-rendering:auto;image-rendering:auto;shape-rendering:auto;text-rendering:auto;enable-background:accumulate"
           d="m -212.18555,659.28906 c -2.67757,-0.0844 -5.40521,0.37956 -8.02929,1.38672 l -0.002,0.002 c -10.28917,3.95135 -14.56169,14.41173 -11.4375,23.35743 1.66335,4.76276 5.16902,8.12513 9.3418,9.82812 l -1.71875,11.69336 2.98828,1.14844 c 5.60309,2.15404 12.10912,1.65981 16.91602,-0.18164 l 0.002,0 c 8.09176,-3.1051 12.16741,-9.52503 13.08203,-15.75 0.91463,-6.22498 -0.67497,-12.22237 -2.34375,-16.625 l -0.002,-0.008 -0.002,-0.008 c -2.31561,-6.04193 -6.22808,-10.54904 -11.07032,-12.93359 -2.42112,-1.19228 -5.04703,-1.82575 -7.72461,-1.91016 z m -0.26562,7.96289 c 1.56203,0.0477 3.05045,0.43234 4.45703,1.125 2.81006,1.38381 5.39992,4.10813 7.12695,8.60547 4.5e-4,10e-4 -4.5e-4,0.003 0,0.004 1.37324,3.62408 2.50304,8.5746 1.90821,12.62305 -0.59492,4.04898 -2.25654,7.22657 -8.03125,9.44335 -1.59397,0.61063 -5.20269,0.91197 -8.10352,0.70899 l 0.0644,-0.4375 c 1.97139,0.15763 4.22908,0.083 6.67578,-0.77149 l 0.0508,-0.0176 0.0508,-0.0195 c 2.70538,-1.02766 5.11204,-2.95934 6.32031,-5.67773 1.20827,-2.71839 1.0933,-5.9001 -0.008,-8.94141 l -3.23633,-8.9375 -0.0625,0.12891 c -0.6489,-1.57383 -1.53636,-3.19308 -3.11524,-4.5918 -1.87746,-1.66323 -5.19525,-2.76001 -8.23828,-1.69726 -4.59406,1.60444 -7.43721,6.73682 -5.67968,11.45117 l 0.004,0.008 0.004,0.01 c 0.61557,1.62735 1.63622,3.36525 3.53711,4.69336 1.72715,1.20673 4.35227,1.69279 6.81445,1.04883 -0.28375,0.16461 -0.47728,0.38604 -0.80273,0.51367 l -0.002,0 -0.002,0.002 c -4.86834,1.91654 -9.53657,0.15952 -11.38281,-5.12695 -1.86425,-5.338 -0.14674,-10.60381 6.75195,-13.25391 1.69991,-0.65245 3.33641,-0.94026 4.89844,-0.89258 z m -1.50391,9.09766 c 0.36813,-0.12857 -0.077,-0.19644 0.29688,0.13477 0.17061,0.15114 0.3658,0.63071 0.58398,0.9746 -0.27823,0.43314 -0.59257,0.75868 -0.94336,0.90235 -0.004,0.0181 -0.0694,0.0812 -0.12695,0.041 -0.0955,-0.0667 -0.4647,-0.52604 -0.63086,-0.95507 -0.13184,-0.36372 -0.0165,-0.80542 0.82031,-1.09766 z"
           id="path4231"
           inkscape:connector-curvature="0" />
        <path
           style="color:#000000;font-style:normal;font-variant:normal;font-weight:normal;font-stretch:normal;font-size:medium;line-height:125%;font-family:ChunkFive;-inkscape-font-specification:ChunkFive;text-indent:0;text-align:start;text-decoration:none;text-decoration-line:none;text-decoration-style:solid;text-decoration-color:#000000;letter-spacing:0px;word-spacing:0px;text-transform:none;direction:ltr;block-progression:tb;writing-mode:lr-tb;baseline-shift:baseline;text-anchor:start;white-space:normal;clip-rule:nonzero;display:inline;overflow:visible;visibility:visible;opacity:1;isolation:auto;mix-blend-mode:normal;color-interpolation:sRGB;color-interpolation-filters:linearRGB;solid-color:#000000;solid-opacity:1;fill:#000000;fill-opacity:1;fill-rule:nonzero;stroke:none;stroke-width:8.00000095;stroke-linecap:butt;stroke-linejoin:miter;stroke-miterlimit:4;stroke-dasharray:none;stroke-dashoffset:0;stroke-opacity:1;color-rendering:auto;image-rendering:auto;shape-rendering:auto;text-rendering:auto;enable-background:accumulate"
           d="m -178.80078,647.47461 c -2.9276,0.0842 -5.75671,0.66717 -8.16016,1.58789 l -0.002,0 c -8.18262,3.13996 -12.03499,9.90027 -12.7832,16.17578 -0.74822,6.27551 0.90101,12.18461 2.35937,16.07617 l 0.004,0.0137 0.006,0.0137 c 2.3013,6.00461 6.09042,10.53175 10.85742,12.96484 4.767,2.43309 10.39971,2.61731 15.64648,0.60352 l 0.002,0 c 10.28918,-3.95135 14.56169,-14.41368 11.4375,-23.35938 -1.66335,-4.76273 -5.16906,-8.12317 -9.3418,-9.82617 l 1.71875,-11.69336 -2.98828,-1.14844 c -2.80155,-1.07702 -5.82826,-1.49243 -8.75586,-1.4082 z m 0.18555,8.27539 c 0.89945,-0.0247 1.77596,0.0172 2.61914,0.0762 l -0.0625,0.4375 c -1.97138,-0.15763 -4.22908,-0.085 -6.67579,0.76953 l -0.0508,0.0176 -0.0508,0.0195 c -2.94195,1.11752 -5.16283,3.41928 -6.26953,6.02735 -1.1067,2.60806 -1.23977,5.46179 -0.67969,8.20117 l 2.37305,11.60937 1.09961,-2.27929 c 0.75185,1.73886 1.82992,3.40025 3.55664,4.72461 2.01552,1.54585 5.21674,2.49829 8.25977,1.43554 4.59406,-1.60444 7.43697,-6.73692 5.67968,-11.45117 l -0.004,-0.01 -0.004,-0.008 c -0.61558,-1.62734 -1.63622,-3.36525 -3.53711,-4.69336 -1.72029,-1.20193 -4.33142,-1.68859 -6.78515,-1.05664 0.27177,-0.15639 0.49718,-0.39753 0.77343,-0.50586 l 0.002,-0.002 0.002,0 c 4.86835,-1.91654 9.53655,-0.15952 11.38281,5.12695 1.86441,5.33847 0.14629,10.60208 -6.7539,13.25196 -3.40045,1.30465 -6.4146,1.13065 -9.14258,-0.26172 -2.72586,-1.39129 -5.27636,-4.15372 -7.01758,-8.68946 -1.17578,-3.14209 -2.40145,-8.11855 -1.90234,-12.30468 0.49972,-4.19132 2.02047,-7.47038 7.70507,-9.65235 1.13037,-0.43302 3.28776,-0.72303 5.48243,-0.7832 z m 1.67187,21.43555 c 0.0955,0.0667 0.46469,0.52603 0.63086,0.95507 0.13188,0.36387 0.0165,0.80347 -0.82031,1.09571 -0.36813,0.12856 -0.27825,0.13435 -0.75391,-0.23047 -0.15241,-0.1169 -0.25435,-0.39981 -0.41797,-0.59961 0.41413,-0.53155 0.88866,-1.03934 1.23633,-1.18164 -10e-4,-0.0152 0.0689,-0.0783 0.125,-0.0391 z"
           id="path4233"
           inkscape:connector-curvature="0" />
        <path
           style="color:#000000;font-style:normal;font-variant:normal;font-weight:normal;font-stretch:normal;font-size:medium;line-height:125%;font-family:ChunkFive;-inkscape-font-specification:ChunkFive;text-indent:0;text-align:start;text-decoration:none;text-decoration-line:none;text-decoration-style:solid;text-decoration-color:#000000;letter-spacing:0px;word-spacing:0px;text-transform:none;direction:ltr;block-progression:tb;writing-mode:lr-tb;baseline-shift:baseline;text-anchor:start;white-space:normal;clip-rule:nonzero;display:inline;overflow:visible;visibility:visible;opacity:1;isolation:auto;mix-blend-mode:normal;color-interpolation:sRGB;color-interpolation-filters:linearRGB;solid-color:#000000;solid-opacity:1;fill:#000000;fill-opacity:1;fill-rule:nonzero;stroke:none;stroke-width:8.00000095;stroke-linecap:butt;stroke-linejoin:miter;stroke-miterlimit:4;stroke-dasharray:none;stroke-dashoffset:0;stroke-opacity:1;color-rendering:auto;image-rendering:auto;shape-rendering:auto;text-rendering:auto;enable-background:accumulate"
           d="m -141.55664,633.86133 -16.62109,5.80469 -9.77735,27.63086 4.44531,12.7246 3.77539,-1.31836 8.2168,-2.86914 3.66602,10.5 24.82226,-8.66992 -5.09375,-14.58789 -0.0547,0.0195 -3.21875,-9.2207 -2.82618,0.98633 -7.33398,-21 z m -4.91602,10.18945 6.70899,19.20508 0.62695,1.79492 3.04102,8.70508 -3.48242,1.21484 -3.03907,-8.70312 -0.62695,-1.79688 -6.70898,-19.20312 3.48046,-1.2168 z"
           id="path4235"
           inkscape:connector-curvature="0" />
        <path
           style="color:#000000;font-style:normal;font-variant:normal;font-weight:normal;font-stretch:normal;font-size:medium;line-height:125%;font-family:ChunkFive;-inkscape-font-specification:ChunkFive;text-indent:0;text-align:start;text-decoration:none;text-decoration-line:none;text-decoration-style:solid;text-decoration-color:#000000;letter-spacing:0px;word-spacing:0px;text-transform:none;direction:ltr;block-progression:tb;writing-mode:lr-tb;baseline-shift:baseline;text-anchor:start;white-space:normal;clip-rule:nonzero;display:inline;overflow:visible;visibility:visible;opacity:1;isolation:auto;mix-blend-mode:normal;color-interpolation:sRGB;color-interpolation-filters:linearRGB;solid-color:#000000;solid-opacity:1;fill:#000000;fill-opacity:1;fill-rule:nonzero;stroke:none;stroke-width:8.00000095;stroke-linecap:butt;stroke-linejoin:miter;stroke-miterlimit:4;stroke-dasharray:none;stroke-dashoffset:0;stroke-opacity:1;color-rendering:auto;image-rendering:auto;shape-rendering:auto;text-rendering:auto;enable-background:accumulate"
           d="m -81.705078,613.46289 -3.695313,0.78711 -0.238281,0.082 -19.818358,6.92188 1.89844,5.43554 -5.54102,-4.16211 -21.08984,7.36328 5.03906,14.42969 3.0918,-1.08008 5.57226,15.95118 -3.14453,1.09961 5.03906,14.42773 23.914066,-8.35156 -1.927735,-5.52149 5.623047,4.23047 17.251953,-6.02539 -10.611328,-30.3789 3.519531,-1.23047 -4.882812,-13.97852 z m -8.589844,10.9707 10.375,29.70118 -5.667969,1.98046 -29.498049,-22.19335 10.11524,28.96289 -1.5625,0.54492 -10.37305,-29.70313 6.41406,-2.24023 28.832034,21.66015 -9.996094,-28.23828 1.361328,-0.47461 z"
           id="path4237"
           inkscape:connector-curvature="0" />
        <path
           style="color:#000000;font-style:normal;font-variant:normal;font-weight:normal;font-stretch:normal;font-size:medium;line-height:125%;font-family:ChunkFive;-inkscape-font-specification:ChunkFive;text-indent:0;text-align:start;text-decoration:none;text-decoration-line:none;text-decoration-style:solid;text-decoration-color:#000000;letter-spacing:0px;word-spacing:0px;text-transform:none;direction:ltr;block-progression:tb;writing-mode:lr-tb;baseline-shift:baseline;text-anchor:start;white-space:normal;clip-rule:nonzero;display:inline;overflow:visible;visibility:visible;opacity:1;isolation:auto;mix-blend-mode:normal;color-interpolation:sRGB;color-interpolation-filters:linearRGB;solid-color:#000000;solid-opacity:1;fill:#000000;fill-opacity:1;fill-rule:nonzero;stroke:none;stroke-width:8.00000095;stroke-linecap:butt;stroke-linejoin:miter;stroke-miterlimit:4;stroke-dasharray:none;stroke-dashoffset:0;stroke-opacity:1;color-rendering:auto;image-rendering:auto;shape-rendering:auto;text-rendering:auto;enable-background:accumulate"
           d="m -42.025391,599.10156 -20.734375,7.24024 -2.595703,0.90625 -21.90625,7.65234 5.058594,14.48047 2.984375,-1.04297 3.279297,9.38867 c 2.321869,6.64834 5.871168,11.60999 10.847656,14.20508 4.976488,2.59509 10.881399,2.51244 16.966797,0.58789 l 0.05664,-0.0176 0.05664,-0.0195 c 5.726546,-1.99994 10.258612,-5.59076 12.265625,-10.73633 2.007014,-5.14556 1.475358,-11.19339 -0.914062,-18.03515 l -3.205078,-9.17578 2.878906,-1.00586 -5.039063,-14.42774 z m -7.792968,11.19532 5.605468,16.05078 c 2.022147,5.79012 2.05127,9.83005 1.013672,12.49023 -1.032952,2.64827 -3.145297,4.57364 -7.40039,6.07031 -4.757338,1.49286 -8.141327,1.31244 -10.792969,-0.0703 -2.6641,-1.38925 -5.090584,-4.29748 -6.994141,-9.74805 l -5.699219,-16.31836 3.533204,-1.23242 5.103515,14.61133 c 1.596742,4.57207 3.036489,7.58056 5.527344,9.67383 2.490855,2.09327 6.153063,2.14365 8.527344,1.31445 2.120883,-0.74069 5.090787,-2.77503 5.859375,-6 0.768588,-3.22497 0.03509,-6.54541 -1.667969,-11.42187 l -5.082031,-14.5586 2.466797,-0.86132 z m -7.564453,10.53515 2.626953,7.52344 c 1.498586,4.29099 1.525876,6.56706 1.439453,6.92969 -0.08642,0.36263 0.413567,-0.094 -0.716797,0.30078 -1.036866,0.36211 -0.355212,0.43849 -0.742188,0.11328 -0.386976,-0.32521 -1.720949,-2.17836 -3.121093,-6.1875 l -2.701172,-7.73633 0.28125,-0.0977 0.05664,0.16016 2.876954,-1.00586 z"
           id="path4239"
           inkscape:connector-curvature="0" />
        <path
           style="color:#000000;font-style:normal;font-variant:normal;font-weight:normal;font-stretch:normal;font-size:medium;line-height:125%;font-family:ChunkFive;-inkscape-font-specification:ChunkFive;text-indent:0;text-align:start;text-decoration:none;text-decoration-line:none;text-decoration-style:solid;text-decoration-color:#000000;letter-spacing:0px;word-spacing:0px;text-transform:none;direction:ltr;block-progression:tb;writing-mode:lr-tb;baseline-shift:baseline;text-anchor:start;white-space:normal;clip-rule:nonzero;display:inline;overflow:visible;visibility:visible;opacity:1;isolation:auto;mix-blend-mode:normal;color-interpolation:sRGB;color-interpolation-filters:linearRGB;solid-color:#000000;solid-opacity:1;fill:#000000;fill-opacity:1;fill-rule:nonzero;stroke:none;stroke-width:8.00000095;stroke-linecap:butt;stroke-linejoin:miter;stroke-miterlimit:4;stroke-dasharray:none;stroke-dashoffset:0;stroke-opacity:1;color-rendering:auto;image-rendering:auto;shape-rendering:auto;text-rendering:auto;enable-background:accumulate"
           d="m 0.80859375,583.85742 -3.80664065,1.61328 -19.7011721,6.88086 1.898438,5.4336 -5.541016,-4.16211 -21.087891,7.36523 5.039063,14.42774 3.091797,-1.08008 5.572266,15.95312 -3.146485,1.09766 5.039063,14.42969 23.9160152,-8.35352 -1.9277343,-5.51758 5.6210937,4.22852 17.2539064,-6.02539 -10.6113282,-30.38086 3.5175781,-1.22852 -5.12695315,-14.68164 z m -8.34374995,11.67188 10.3730468,29.70508 -5.6660156,1.97851 -29.498047,-22.19336 10.113281,28.96289 -1.560547,0.54492 -10.375,-29.70312 6.416016,-2.24024 28.8300782,21.65821 -9.9960937,-28.23633 1.3632813,-0.47656 z"
           id="path4241"
           inkscape:connector-curvature="0" />
        <path
           style="color:#000000;font-style:normal;font-variant:normal;font-weight:normal;font-stretch:normal;font-size:medium;line-height:125%;font-family:ChunkFive;-inkscape-font-specification:ChunkFive;text-indent:0;text-align:start;text-decoration:none;text-decoration-line:none;text-decoration-style:solid;text-decoration-color:#000000;letter-spacing:0px;word-spacing:0px;text-transform:none;direction:ltr;block-progression:tb;writing-mode:lr-tb;baseline-shift:baseline;text-anchor:start;white-space:normal;clip-rule:nonzero;display:inline;overflow:visible;visibility:visible;opacity:1;isolation:auto;mix-blend-mode:normal;color-interpolation:sRGB;color-interpolation-filters:linearRGB;solid-color:#000000;solid-opacity:1;fill:#000000;fill-opacity:1;fill-rule:nonzero;stroke:none;stroke-width:8.00000095;stroke-linecap:butt;stroke-linejoin:miter;stroke-miterlimit:4;stroke-dasharray:none;stroke-dashoffset:0;stroke-opacity:1;color-rendering:auto;image-rendering:auto;shape-rendering:auto;text-rendering:auto;enable-background:accumulate"
           d="m 37.056641,571.48242 -14.675782,5.125 -0.05859,1.08594 c -2.039668,-0.25361 -4.376467,-0.25457 -7.06836,0.68555 -9.6342592,3.36467 -16.7531485,16.2167 -11.8105466,30.36914 2.3534464,6.73875 6.6046436,11.84095 12.1035156,14.5 5.498872,2.65904 12.031059,2.77465 18.488281,0.51953 8.25057,-2.88143 13.326386,-9.31436 15.890625,-15.3711 l 1.419922,-3.35351 -14.742187,-7.94531 8.376953,-2.92578 -7.923828,-22.68946 z m -4.916016,10.19141 2.648437,7.58398 -2.634765,0.92188 c -0.648359,-0.86052 -1.448424,-1.6309 -2.369141,-2.31055 l 0.294922,-5.47656 2.060547,-0.71875 z m -11.71875,3.69531 c 1.779766,-0.13533 2.556488,0.38248 2.988281,0.67774 -0.797802,0.0615 -1.599378,0.20754 -2.380859,0.48046 -3.474758,1.21353 -5.524421,4.51439 -6.138672,7.73633 -0.614251,3.22195 -0.178642,6.67938 1.025391,10.12695 1.147871,3.28677 3.076718,6.23967 5.896484,8.23829 2.819766,1.99862 6.769487,2.81946 10.480469,1.52343 3.557283,-1.24234 5.667472,-3.92462 6.996093,-6.12109 0.07096,-0.11731 0.09141,-0.19708 0.158204,-0.3125 l 1.427734,0.76953 c -2.066183,3.27823 -5.146532,6.21434 -9.476562,7.72656 -4.842191,1.69109 -8.982066,1.4699 -12.369141,-0.16796 -3.387075,-1.63787 -6.235683,-4.79056 -8.033203,-9.9375 -3.6199344,-10.36517 2.566378,-18.66549 6.896484,-20.17774 0.980019,-0.34226 1.817315,-0.50836 2.529297,-0.5625 z m 4.037109,8.54688 c 0.172059,0.0264 0.301965,0.12852 0.53711,0.28906 0.470289,0.32108 1.174566,1.18399 1.636718,2.33398 l 1.423829,3.54297 7.162109,-2.50195 -1.285156,3.0664 c -0.261309,0.62357 -0.290085,0.78303 -0.525391,1.3379 -0.235305,0.55486 -0.560945,1.24175 -0.962891,1.90624 -0.803891,1.32899 -1.87117,2.38774 -2.791015,2.70899 -1.352431,0.47232 -2.122548,0.27754 -3.216797,-0.49805 -1.094249,-0.77559 -2.273817,-2.35782 -2.96875,-4.34765 -0.824916,-2.36204 -0.980842,-4.61744 -0.71875,-5.99219 0.262092,-1.37476 0.555186,-1.55494 0.917969,-1.68164 0.405314,-0.14155 0.618956,-0.19048 0.791015,-0.16406 z"
           id="path4243"
           inkscape:connector-curvature="0" />
        <path
           style="color:#000000;font-style:normal;font-variant:normal;font-weight:normal;font-stretch:normal;font-size:medium;line-height:125%;font-family:ChunkFive;-inkscape-font-specification:ChunkFive;text-indent:0;text-align:start;text-decoration:none;text-decoration-line:none;text-decoration-style:solid;text-decoration-color:#000000;letter-spacing:0px;word-spacing:0px;text-transform:none;direction:ltr;block-progression:tb;writing-mode:lr-tb;baseline-shift:baseline;text-anchor:start;white-space:normal;clip-rule:nonzero;display:inline;overflow:visible;visibility:visible;opacity:1;isolation:auto;mix-blend-mode:normal;color-interpolation:sRGB;color-interpolation-filters:linearRGB;solid-color:#000000;solid-opacity:1;fill:#000000;fill-opacity:1;fill-rule:nonzero;stroke:none;stroke-width:8.00000095;stroke-linecap:butt;stroke-linejoin:miter;stroke-miterlimit:4;stroke-dasharray:none;stroke-dashoffset:0;stroke-opacity:1;color-rendering:auto;image-rendering:auto;shape-rendering:auto;text-rendering:auto;enable-background:accumulate"
           d="m 67.693359,560.7832 -12.408203,4.33399 -0.324218,-0.44336 0.02344,0.54883 -14.3125,4.99804 5.039063,14.42774 0.847656,-0.29688 0.662109,17.54688 -4.611328,1.61133 5.076172,14.53515 20.894531,-7.29883 0,0.002 28.925781,-10.10157 -5.076171,-14.53515 -3.777344,1.31836 -0.951172,0.33203 -20.007813,-26.97852 z m -2.919921,9.49414 19.630859,26.47071 -4.679688,1.63476 -6.980468,-9.46289 -0.0078,0.004 -12.505859,-17.06055 4.542969,-1.58594 z m -9.423829,3.29102 0.1875,4.2832 0.734375,16.82032 -0.02539,0.01 0.427734,11.75 -1.259766,0.43945 -1.240234,-32.89257 1.175781,-0.41016 z"
           id="path4245"
           inkscape:connector-curvature="0" />
        <path
           style="color:#000000;font-style:normal;font-variant:normal;font-weight:normal;font-stretch:normal;font-size:medium;line-height:125%;font-family:ChunkFive;-inkscape-font-specification:ChunkFive;text-indent:0;text-align:start;text-decoration:none;text-decoration-line:none;text-decoration-style:solid;text-decoration-color:#000000;letter-spacing:0px;word-spacing:0px;text-transform:none;direction:ltr;block-progression:tb;writing-mode:lr-tb;baseline-shift:baseline;text-anchor:start;white-space:normal;clip-rule:nonzero;display:inline;overflow:visible;visibility:visible;opacity:1;isolation:auto;mix-blend-mode:normal;color-interpolation:sRGB;color-interpolation-filters:linearRGB;solid-color:#000000;solid-opacity:1;fill:#000000;fill-opacity:1;fill-rule:nonzero;stroke:none;stroke-width:8.00000095;stroke-linecap:butt;stroke-linejoin:miter;stroke-miterlimit:4;stroke-dasharray:none;stroke-dashoffset:0;stroke-opacity:1;color-rendering:auto;image-rendering:auto;shape-rendering:auto;text-rendering:auto;enable-background:accumulate"
           d="m 148.33398,532.61914 -27.01171,9.43555 0.82226,9.67773 -5.50195,-8.04492 -26.869142,9.38477 5.039062,14.42773 2.826172,-0.98633 5.570308,15.95313 -2.87695,1.0039 5.03711,14.42774 19.62305,-6.85156 2.375,-0.83008 12.2207,-4.26758 2.29883,-0.80274 22.0957,-7.71875 -5.05664,-14.48046 -2.93164,1.02343 -5.55273,-15.89843 2.93164,-1.02344 -5.03907,-14.42969 z m -7.8457,11.21484 10.37305,29.70313 -3.31055,1.15625 -7.38281,-20.9375 -0.78711,-2.25586 0.68359,-5.46875 -9.46484,3.30859 0.5332,3.30664 c 0.3905,2.41886 0.87158,6.49647 0.90039,7.20704 l 0.004,0.0644 1.42773,19.69531 -0.89843,0.31445 -2.74805,-32.36718 10.66992,-3.72657 z m -26.99219,9.42579 18.39453,26.90234 -3.8125,1.33203 -11.67382,-16.7168 -0.0137,-0.0195 c -0.26626,-0.37136 -2.09401,-3.29029 -2.98828,-5.42969 l -1.45312,-3.47656 -7.54492,2.63672 9.73437,27.875 -0.97461,0.33984 -10.375,-29.70312 10.70703,-3.74023 z"
           id="path4247"
           inkscape:connector-curvature="0" />
        <path
           style="color:#000000;font-style:normal;font-variant:normal;font-weight:normal;font-stretch:normal;font-size:medium;line-height:125%;font-family:ChunkFive;-inkscape-font-specification:ChunkFive;text-indent:0;text-align:start;text-decoration:none;text-decoration-line:none;text-decoration-style:solid;text-decoration-color:#000000;letter-spacing:0px;word-spacing:0px;text-transform:none;direction:ltr;block-progression:tb;writing-mode:lr-tb;baseline-shift:baseline;text-anchor:start;white-space:normal;clip-rule:nonzero;display:inline;overflow:visible;visibility:visible;opacity:1;isolation:auto;mix-blend-mode:normal;color-interpolation:sRGB;color-interpolation-filters:linearRGB;solid-color:#000000;solid-opacity:1;fill:#000000;fill-opacity:1;fill-rule:nonzero;stroke:none;stroke-width:8.00000095;stroke-linecap:butt;stroke-linejoin:miter;stroke-miterlimit:4;stroke-dasharray:none;stroke-dashoffset:0;stroke-opacity:1;color-rendering:auto;image-rendering:auto;shape-rendering:auto;text-rendering:auto;enable-background:accumulate"
           d="m 178.56055,522.06445 -12.41016,4.33399 -0.32422,-0.44336 0.0234,0.54883 -14.3125,4.99804 5.03906,14.42774 0.84961,-0.29688 0.66211,17.54688 -4.61133,1.61133 5.07617,14.53515 20.89258,-7.29687 3.60938,-1.26172 25.3164,-8.8418 -5.07617,-14.5332 -3.77539,1.31836 -0.95312,0.33203 -20.00586,-26.97852 z m -2.91993,9.49219 19.62891,26.47266 -4.67969,1.63281 -6.97851,-9.46289 -0.01,0.004 -12.50586,-17.05859 4.54492,-1.58789 z m -9.42578,3.29297 0.1875,4.2832 0.73438,16.82031 -0.0254,0.01 0.42969,11.75 -1.25977,0.43945 -1.24023,-32.89453 1.17382,-0.4082 z"
           id="path4249"
           inkscape:connector-curvature="0" />
        <path
           style="color:#000000;font-style:normal;font-variant:normal;font-weight:normal;font-stretch:normal;font-size:medium;line-height:125%;font-family:ChunkFive;-inkscape-font-specification:ChunkFive;text-indent:0;text-align:start;text-decoration:none;text-decoration-line:none;text-decoration-style:solid;text-decoration-color:#000000;letter-spacing:0px;word-spacing:0px;text-transform:none;direction:ltr;block-progression:tb;writing-mode:lr-tb;baseline-shift:baseline;text-anchor:start;white-space:normal;clip-rule:nonzero;display:inline;overflow:visible;visibility:visible;opacity:1;isolation:auto;mix-blend-mode:normal;color-interpolation:sRGB;color-interpolation-filters:linearRGB;solid-color:#000000;solid-opacity:1;fill:#000000;fill-opacity:1;fill-rule:nonzero;stroke:none;stroke-width:8.00000095;stroke-linecap:butt;stroke-linejoin:miter;stroke-miterlimit:4;stroke-dasharray:none;stroke-dashoffset:0;stroke-opacity:1;color-rendering:auto;image-rendering:auto;shape-rendering:auto;text-rendering:auto;enable-background:accumulate"
           d="m 212.50977,510.20703 -25.24805,8.81836 5.0957,14.58789 3.35742,-1.17383 5.44141,15.58008 -3.35742,1.17188 5.11328,14.64257 25.24805,-8.81836 -5.11328,-14.64062 -3.30469,1.1543 -5.44141,-15.58008 3.30469,-1.1543 -5.0957,-14.58789 z m -8.21875,11.34375 10.37304,29.70313 -3.48047,1.21679 -10.37304,-29.70508 3.48047,-1.21484 z"
           id="path4251"
           inkscape:connector-curvature="0" />
        <path
           style="color:#000000;font-style:normal;font-variant:normal;font-weight:normal;font-stretch:normal;font-size:medium;line-height:125%;font-family:ChunkFive;-inkscape-font-specification:ChunkFive;text-indent:0;text-align:start;text-decoration:none;text-decoration-line:none;text-decoration-style:solid;text-decoration-color:#000000;letter-spacing:0px;word-spacing:0px;text-transform:none;direction:ltr;block-progression:tb;writing-mode:lr-tb;baseline-shift:baseline;text-anchor:start;white-space:normal;clip-rule:nonzero;display:inline;overflow:visible;visibility:visible;opacity:1;isolation:auto;mix-blend-mode:normal;color-interpolation:sRGB;color-interpolation-filters:linearRGB;solid-color:#000000;solid-opacity:1;fill:#000000;fill-opacity:1;fill-rule:nonzero;stroke:none;stroke-width:8.00000095;stroke-linecap:butt;stroke-linejoin:miter;stroke-miterlimit:4;stroke-dasharray:none;stroke-dashoffset:0;stroke-opacity:1;color-rendering:auto;image-rendering:auto;shape-rendering:auto;text-rendering:auto;enable-background:accumulate"
           d="m 249.4375,497.31055 -16.29883,5.6914 0.16992,0.76758 c -3.041,-0.29026 -6.12862,0.23896 -8.82226,1.17969 -3.47225,1.21265 -6.90711,3.62011 -9.33008,7.20898 -2.42297,3.58887 -3.60385,8.64053 -1.81055,13.77539 1.35912,3.89163 4.01987,6.64221 6.98242,8.27344 l -4.34179,1.51563 7.32812,20.98437 16.37891,-5.71875 -0.22266,-1.13086 c 2.71479,0.31201 5.74881,0.0976 8.95313,-1.02148 3.76366,-1.31443 7.64015,-3.5782 10.40429,-7.16211 2.76415,-3.58392 4.09382,-8.8306 2.23047,-14.16602 -1.39327,-3.98945 -4.39837,-6.69543 -7.59375,-8.11914 l 3.28125,-1.14648 -7.30859,-20.93164 z m -4.91602,10.1914 2.03516,5.82422 -2.73047,0.95508 -1.34179,-6.06836 2.0371,-0.71094 z m -13.05859,4.19727 c -1.44506,0.54943 -2.71124,1.38921 -3.77539,2.76758 -1.12667,1.45935 -1.96097,3.94312 -1.13281,6.31445 0.6622,1.89612 2.33797,3.24681 3.77539,3.8418 1.43741,0.59498 2.77524,0.75425 4.13086,0.84765 2.71124,0.18681 5.58547,-0.007 8.36523,0.0352 2.77976,0.0417 5.39068,0.34064 7.17969,1.05859 1.78901,0.71796 2.77681,1.5113 3.5,3.58203 1.04047,2.97925 0.45347,4.7409 -1.01172,6.64063 -1.46519,1.89973 -4.1281,3.59543 -6.70703,4.49609 -2.36911,0.82739 -4.3586,0.80141 -6.08203,0.47852 0.3195,-0.0815 0.73786,-0.14315 1.00586,-0.22266 l 0.0898,-0.0273 0.0898,-0.0312 c 1.22046,-0.42624 2.71206,-1.01432 4.17774,-2.35742 1.46568,-1.34311 2.79511,-4.36851 1.88086,-6.98633 -0.72255,-2.06893 -2.74085,-3.20925 -4.10547,-3.56641 -1.36462,-0.35716 -2.53251,-0.35966 -3.75781,-0.33789 -2.45061,0.0435 -5.11416,0.33618 -7.70899,0.33985 -2.59482,0.004 -5.02826,-0.30625 -6.7539,-1.07813 -1.72565,-0.77188 -2.86896,-1.74919 -3.72461,-4.19922 -0.9616,-2.7534 -0.41283,-4.73435 0.88867,-6.66211 1.30149,-1.92776 3.58487,-3.51931 5.33594,-4.13086 1.54935,-0.54109 2.99571,-0.78062 4.33984,-0.80273 z m -2.16992,27.85156 1.21289,6.17188 -2.27539,0.79492 -2.05274,-5.87891 3.11524,-1.08789 z"
           id="path4253"
           inkscape:connector-curvature="0" />
      </g>
      <text
         transform="matrix(0.94408172,-0.32971154,0.32971154,0.94408172,0,0)"
         sodipodi:linespacing="125%"
         id="text4175"
         y="595.20697"
         x="-469.08871"
         style="font-style:normal;font-weight:normal;font-size:56.45602798px;line-height:125%;font-family:sans-serif;letter-spacing:0px;word-spacing:0px;fill:#ffffff;fill-opacity:1;stroke:none;stroke-width:1px;stroke-linecap:butt;stroke-linejoin:miter;stroke-opacity:1"
         xml:space="preserve"><tspan
           style="font-style:normal;font-variant:normal;font-weight:normal;font-stretch:normal;font-family:ChunkFive;-inkscape-font-specification:ChunkFive;fill:#ffffff"
           y="595.20697"
           x="-469.08871"
           id="tspan4177"
           sodipodi:role="line">1964 NUNCA MAIS</tspan></text>
    </g>
    <g
       id="g4385"
       transform="translate(0,12.000001)">
      <path
         inkscape:connector-curvature="0"
         id="text4360"
         d="m -187.45453,806.37722 c -13.66981,0 -23.17969,9.8393 -23.17969,24.1035 0,16.5094 9.83874,24.5 23.64062,24.5 14.92453,0 23.2461,-9.1126 23.2461,-24.0371 0,-14.8585 -7.52779,-24.5664 -23.70703,-24.5664 z m 96.476561,0 c -13.669811,0 -23.179691,9.8393 -23.179691,24.1035 0,16.5094 9.83874,24.5 23.640631,24.5 14.92452,0 23.24609,-9.1126 23.24609,-24.0371 0,-14.8585 -7.52779,-24.5664 -23.70703,-24.5664 z m 65.392572,0 c -13.6698,0 -23.179681,9.8393 -23.179681,24.1035 0,16.5094 9.840691,24.5 23.642581,24.5 14.924501,0 23.2441012,-9.1126 23.2441012,-24.0371 0,-14.8585 -7.5278,-24.5664 -23.7070012,-24.5664 z m 107.697306,0 c -13.669801,0 -23.177802,9.8393 -23.177802,24.1035 0,16.5094 9.838801,24.5 23.640702,24.5 14.9245,0 23.246101,-9.1126 23.246101,-24.0371 0,-14.8585 -7.529801,-24.5664 -23.709001,-24.5664 z m -339.050819,1.2539 0,17.1699 9.70899,0 0,-8.4531 5.67773,0 0,28.6601 -5.41406,0 0,8.7832 24.5664,0 0,-8.7832 -5.48242,0 0,-28.6601 5.54688,0 0,8.4531 9.70898,0 0,-17.1699 -44.3125,0 z m 95.84766,0 0,8.7168 4.09375,0 0,28.6601 -4.09375,0 0,8.7832 19.87695,0 c 16.24528,0 25.35937,-8.6504 25.35938,-23.707 0,-12.6132 -9.11263,-22.4531 -25.09376,-22.4531 l -20.14257,0 z m 178.378955,0 0,8.6523 3.699201,0 0,28.791 -3.699201,0 0,8.7168 21.265601,0 0,-8.7168 -4.0293,0 0,-10.2343 5.0195,0 c 9.443401,0 17.367201,-4.3592 17.367201,-13.0762 0,-7.5283 -2.9058,-14.1328 -18.226601,-14.1328 l -21.396401,0 z m 91.189405,0 0,8.7168 4.0938,0 0,28.6601 -4.0938,0 0,8.7832 19.877,0 c 16.2452,0 25.3593,-8.6504 25.3593,-23.707 0,-12.6132 -9.1145,-22.4531 -25.0957,-22.4531 l -20.1406,0 z m 47.5938,0 0,8.7168 4.1601,0 0,28.6601 -4.1601,0 0,8.7832 39.8203,0 0,-14.9238 -11.4239,0 0,6.1406 -10.5664,0 0,-10.7636 12.5469,0 0,-8.7832 -12.5469,0 0,-9.1133 10.5664,0 0,5.8789 11.4239,0 0,-14.5957 -39.8203,0 z m 43.08,0 0,8.6523 3.6973,0 0,28.791 -3.6973,0 0,8.7168 21.3301,0 0,-8.7168 -4.0293,0 0,-10.2343 c 5.8774,0 6.6035,1.4515 6.6035,7.4609 0,7.7264 4.1616,12.2832 12.8125,12.2832 7.3302,0 9.6407,-5.0853 9.6407,-10.5664 l 0,-3.6309 -4.4239,0 0,2.1778 c 0,1.3207 -0.5289,2.1133 -1.5195,2.1133 -1.1887,0 -1.584,-1.6506 -1.584,-4.4903 0,-4.7547 -4.0957,-8.7165 -8.6523,-9.3769 5.4811,-0.7925 9.5761,-4.4253 9.5761,-9.5762 0,-7.5283 -2.9722,-13.6035 -18.2929,-13.6035 l -21.461,0 z m -164.626904,8.5859 3.3027,0 c 3.830201,0 6.140601,2.1136 6.140601,6.0098 0,3.5 -2.6405,5.4805 -6.470701,5.4805 l -2.9726,0 0,-11.4903 z m 181.927704,0 3.3028,0 c 3.8301,0 6.0097,1.9808 6.0097,5.877 0,3.5 -2.5096,5.3496 -6.3398,5.3496 l -2.9727,0 0,-11.2266 z m -359.91015,0.1309 2.50976,0 c 7,0 9.9043,6.6703 9.9043,13.7363 0,8.2547 -2.9043,14.7918 -9.9043,14.9238 l -2.50976,0 0,-28.6601 z m 269.56835,0 2.5078,0 c 7,0 9.9063,6.6703 9.9063,13.7363 0,8.2547 -2.9063,14.7918 -9.9063,14.9238 l -2.5078,0 0,-28.6601 z m -313.63085,0.1992 c 5.0849,0 7.26367,6.4059 7.26367,14.3965 0,8.1887 -2.57595,13.6699 -6.73633,13.6699 -4.22641,0 -7.33008,-5.4819 -7.33008,-14.1328 0,-8.1887 2.77444,-13.9996 6.80274,-13.9336 z m 96.476561,0 c 5.08491,0 7.26367,6.4059 7.26367,14.3965 0,8.1887 -2.57595,13.6699 -6.73632,13.6699 -4.22642,0 -7.33008,-5.4819 -7.33008,-14.1328 0,-8.1887 2.77443,-13.9996 6.80273,-13.9336 z m 65.392582,0 c 5.0849,0 7.263701,6.4059 7.263701,14.3965 0,8.1887 -2.574001,13.6699 -6.734401,13.6699 -4.2264,0 -7.3301,-5.4819 -7.3301,-14.1328 0,-8.1887 2.7725,-13.9996 6.8008,-13.9336 z m 107.699206,0 c 5.0849,0 7.2637,6.4059 7.2637,14.3965 0,8.1887 -2.576,13.6699 -6.7363,13.6699 -4.226501,0 -7.330101,-5.4819 -7.330101,-14.1328 0,-8.1887 2.7744,-13.9996 6.802701,-13.9336 z m -33.525402,42.3633 c -11.638601,0 -19.734301,8.3768 -19.734301,20.5215 0,14.0563 8.3758,20.8593 20.126901,20.8593 12.706901,0 19.793001,-7.7579 19.793001,-20.4648 0,-12.6507 -6.4104,-20.916 -20.185601,-20.916 z m 91.695303,0 c -11.6386,0 -19.7343,8.3768 -19.7343,20.5215 0,14.0563 8.3758,20.8593 20.1269,20.8593 12.7069,0 19.793,-7.7579 19.793,-20.4648 0,-12.6507 -6.4104,-20.916 -20.1856,-20.916 z m 85.1055,0 c -11.6386,0 -19.7344,8.3768 -19.7344,20.5215 0,14.0563 8.3779,20.8593 20.1289,20.8593 12.7069,0 19.7911,-7.7579 19.7911,-20.4648 0,-12.6507 -6.4104,-20.916 -20.1856,-20.916 z m -482.26172,1.0683 0,7.4219 3.54297,0 0,24.4024 -3.54297,0 0,7.4765 33.9043,0 0,-12.707 -9.72657,0 0,5.2305 -8.99609,0 0,-9.1661 10.68164,0 0,-7.4785 -10.68164,0 0,-7.7578 8.99609,0 0,5.0039 9.72657,0 0,-12.4258 -33.9043,0 z m 36.73438,0 0,7.252 2.98046,0 0,24.7969 -3.03711,0 0,7.2519 15.23829,0 0,-7.2519 -3.20508,0 0,-22.1543 0.22461,0 c 0.16867,2.8112 0.90051,6.0168 1.18164,6.9726 l 6.29687,22.4336 11.75,0 5.9043,-21.8711 c 0.39358,-1.2931 1.18106,-5.005 1.63086,-7.5351 l 0.22461,0 0,3.3183 0.0566,18.7793 -3.20508,0 0,7.3086 17.76758,0 0,-7.3086 -3.09375,0 0,-24.7402 3.09375,0 0,-7.252 -21.42188,0 -5.39843,21.0274 -5.67774,-21.0274 -21.31054,0 z m 65.15429,0 0,7.252 2.30664,0 -7.59179,24.6836 -3.82227,0 0,7.3652 17.87891,0 0,-7.3652 -4.38477,0 1.17969,-3.8223 11.52734,0 1.17969,3.8223 -5.3418,0 0,7.3652 22.54688,0 0,-7.3652 -3.93555,0 -9.95117,-31.9356 -21.5918,0 z m 37.74219,0 0,7.252 3.26172,0 0,24.7969 -3.31641,0 0,7.2519 17.25977,0 0,-7.2519 -4.32813,0 0,-14.17 14.335941,21.4219 12.08984,0 0,-32.0488 3.71094,0 0,-7.252 -16.92383,0 0,7.252 3.82227,0 0.0566,13.3828 -13.832031,-20.6348 -16.13672,0 z m 54.392581,0 0,7.252 2.30664,0 -7.5918,24.6836 -3.82226,0 0,7.3652 17.878901,0 0,-7.3652 -4.38476,0 1.17968,-3.8223 11.52735,0 1.17969,3.8223 -5.3418,0 0,7.3652 22.546831,0 0,-7.3652 -3.9355,0 -9.951181,-31.9356 -21.591791,0 z m 51.742173,0 0,7.4219 3.4863002,0 0,24.4024 -3.4863002,0 0,7.4765 16.9238012,0 c 13.8313998,0 21.5918008,-7.3642 21.5918008,-20.1836 0,-10.739 -7.760601,-19.1172 -21.3671008,-19.1172 l -17.1485012,0 z m 96.199205,0 0,7.3653 3.1485,0 0,24.5136 -3.1485,0 0,7.4219 18.103601,0 0,-7.4219 -3.429701,0 0,-8.7148 4.273401,0 c 8.0402,0 14.7871,-3.7111 14.7871,-11.1328 0,-6.4097 -2.4733,-12.0313 -15.5176,-12.0313 l -18.216801,0 z m 75.670001,0 0,7.3086 3.0937,0 14.8984,31.9922 10.3457,0 13.4942,-31.9922 2.7558,0 0,-7.3086 -15.9687,0 0.0566,7.3086 2.9239,0 -5.1172,12.2579 c -1.1245,2.8112 -1.911,5.5663 -2.0235,7.1406 l -0.2812,0 c -0.1125,-1.5743 -0.8445,-4.0477 -1.7441,-6.8028 l -4.7793,-12.5957 3.0371,0 0.0566,-7.3086 -20.748,0 z m -60.996101,7.3086 2.810501,0 c 3.2611,0 5.2305,1.7999 5.2305,5.1172 0,2.98 -2.2487,4.666 -5.5098,4.666 l -2.531201,0 0,-9.7832 z m -95.8594038,0.1133 2.1348,0 c 5.9597998,0 8.4354998,5.6792 8.4354998,11.6953 0,7.0282 -2.4757,12.5946 -8.4354998,12.7071 l -2.1348,0 0,-24.4024 z m 44.6250018,0.168 c 4.3293,0 6.1855,5.4545 6.1855,12.2578 0,6.9719 -2.1941,11.6387 -5.7363,11.6387 -3.5984,0 -6.2402,-4.6677 -6.2402,-12.0332 0,-6.972 2.3612,-11.9195 5.791,-11.8633 z m 91.695303,0 c 4.3293,0 6.1855,5.4545 6.1855,12.2578 0,6.9719 -2.1941,11.6387 -5.7363,11.6387 -3.5984,0 -6.2402,-4.6677 -6.2402,-12.0332 0,-6.972 2.3613,-11.9195 5.791,-11.8633 z m 85.1074,0 c 4.3294,0 6.1836,5.4545 6.1836,12.2578 0,6.9719 -2.1922,11.6387 -5.7344,11.6387 -3.5984,0 -6.2402,-4.6677 -6.2402,-12.0332 0,-6.972 2.3613,-11.9195 5.791,-11.8633 z m -369.01561,1.6308 3.71093,12.1446 -7.36718,0 3.65625,-12.1446 z m 92.134762,0 3.71094,12.1446 -7.36719,0 3.65625,-12.1446 z m -45.253901,70.2442 c -16.955061,0 -28.750001,12.2042 -28.750001,29.8965 0,20.4771 12.20535,30.3886 29.324221,30.3886 18.51131,0 28.83203,-11.3031 28.83203,-29.8144 0,-18.4294 -9.33868,-30.4707 -29.40625,-30.4707 z m -65.603521,0.082 c -8.02703,0 -19.49414,5.4869 -19.49414,17.6094 0,20.8867 31.45312,18.1854 31.45312,24.5742 0,3.4402 -4.09609,4.0938 -6.96289,4.0938 -3.44015,-0.1639 -10.32031,-1.3092 -10.32031,-8.1895 l -15.23437,0 0,20.6406 14.33398,0 0.90039,-6.3066 c 3.11252,3.6859 8.84639,7.5351 17.11914,7.5351 9.74711,0 21.70508,-4.5875 21.70508,-17.3652 0,-19.2485 -32.43555,-17.2822 -32.43555,-25.7187 0,-2.8668 3.277,-4.3418 5.65235,-4.3418 5.73359,0 10.48437,3.4407 10.48437,9.5019 l 14.82617,0 0,-20.5586 -14.08984,0 -0.81836,6.8809 c -3.27634,-6.1431 -10.23883,-8.3555 -17.11914,-8.3555 z m -94.46875,1.4746 0,10.8125 5.16016,0 0,35.5469 -5.16016,0 0,10.8945 49.39063,0 0,-18.5117 -14.16993,0 0,7.6172 -13.10547,0 0,-13.3516 15.5625,0 0,-10.8925 -15.5625,0 0,-11.3028 13.10547,0 0,7.2891 14.16993,0 0,-18.1016 -49.39063,0 z m 192.855471,0 0,10.5664 4.341801,0 0,36.1211 -4.423831,0 0,10.5664 22.197261,0 0,-10.5664 -4.66992,0 0,-32.2715 0.32813,0 c 0.24572,4.0955 1.31116,8.7638 1.7207,10.1563 l 9.173801,32.6816 17.119201,0 8.5996002,-31.8632 c 0.5733,-1.8839 1.7197,-7.2888 2.375,-10.9747 l 0.3281,0 0,4.8321 0.082,27.3574 -4.6679002,0 0,10.6484 25.882801,0 0,-10.6484 -4.5058998,0 0,-36.0391 4.5058998,0 0,-10.5664 -31.207101,0 -7.863201,30.6328 -8.2735,-30.6328 -31.042942,0 z m 82.466844,0 0,10.8125 5.160101,0 0,35.5469 -5.160101,0 0,10.8945 49.390603,0 0,-18.5117 -14.169901,0 0,7.6172 -13.1055,0 0,-13.3516 15.5625,0 0,-10.8925 -15.5625,0 0,-11.3028 13.1055,0 0,7.2891 14.169901,0 0,-18.1016 -49.390603,0 z m 53.513603,0 0,10.5664 4.75,0 0,36.1211 -4.832,0 0,10.5664 25.146501,0 0,-10.5664 -6.3067,0 0,-20.6406 20.886801,31.207 17.6093,0 0,-46.6875 5.4063,0 0,-10.5664 -24.6543,0 0,10.5664 5.5703,0 0.082,19.4942 -20.150401,-30.0606 -23.507801,0 z m 65.970702,0 0,21.295 12.0391,0 0,-10.4825 7.0449,0 0,35.5469 -6.7168,0 0,10.8945 30.4707,0 0,-10.8945 -6.7988,0 0,-35.5469 6.8809,0 0,10.4825 12.039,0 0,-21.295 -54.959,0 z m 58.25,0 0,10.8125 5.1602,0 0,35.5469 -5.1602,0 0,10.8945 49.3907,0 0,-18.5117 -14.17,0 0,7.6172 -13.1054,0 0,-13.3516 15.5625,0 0,-10.8925 -15.5625,0 0,-11.3028 13.1054,0 0,7.2891 14.17,0 0,-18.1016 -49.3907,0 z m -293.066389,11.0567 c 6.30696,0 9.00977,7.9465 9.00977,17.8574 0,10.1566 -3.19328,16.9551 -8.35351,16.9551 -5.242151,0 -9.091801,-6.7993 -9.091801,-17.5293 0,-10.1567 3.43913,-17.3651 8.435541,-17.2832 z m -43.138671,53.91988 c -22.78229,0 -38.63086,16.399 -38.63086,40.1719 0,27.5148 16.39798,40.832 39.40039,40.832 24.87343,0 38.74024,-15.1891 38.74024,-40.0625 0,-24.7634 -12.54521,-40.9414 -39.50977,-40.9414 z m 179.490256,0 c -22.782301,0 -38.63090081,16.399 -38.63090081,40.1719 0,27.5148 16.39999981,40.832 39.40240181,40.832 24.873401,0 38.740201,-15.1891 38.740201,-40.0625 0,-24.7634 -12.5472,-40.9414 -39.511702,-40.9414 z m 166.593704,0 c -22.7823,0 -38.6308,16.399 -38.6308,40.1719 0,27.5148 16.3999,40.832 39.4023,40.832 24.8734,0 38.7403,-15.1891 38.7403,-40.0625 0,-24.7634 -12.5472,-40.9414 -39.5118,-40.9414 z m -462.93552,2.0918 0,14.5273 6.82422,0 0,47.7657 -6.82422,0 0,14.6386 33.12891,0 c 27.07461,0 42.26172,-14.4181 42.26172,-39.5117 0,-21.0213 -15.18789,-37.4199 -41.82227,-37.4199 l -33.56836,0 z m 188.304691,0 0,14.418 6.16406,0 0,47.9843 -6.16406,0 0,14.5293 35.439422,0 0,-14.5293 -6.71286,0 0,-17.0586 8.36326,0 c 15.738501,0 28.9473012,-7.2631 28.9473012,-21.791 0,-12.5468 -4.8432,-23.5527 -30.3770012,-23.5527 l -35.660122,0 z m 148.125027,0 0,14.3066 6.052701,0 29.166001,62.625 20.252,0 26.414,-62.625 5.3926,0 0,-14.3066 -31.2578,0 0.1113,14.3066 5.7227,0 -10.0156,23.9942 c -2.2012,5.5029 -3.7428,10.8949 -3.9629,13.9765 l -0.5489,0 c -0.2201,-3.0816 -1.6511,-7.9235 -3.4121,-13.3164 l -9.3554,-24.6543 5.9433,0 0.1094,-14.3066 -40.611302,0 z m -119.398465,14.3066 5.50196,0 c 6.3834,0 10.2363,3.5221 10.2363,10.0157 0,5.8331 -4.4017,9.1347 -10.7851,9.1347 l -4.95316,0 0,-19.1504 z m -187.644533,0.2207 4.18164,0 c 11.6663,0 16.50977,11.1163 16.50977,22.8926 0,13.7574 -4.84347,24.6529 -16.50977,24.8731 l -4.18164,0 0,-47.7657 z m 87.35351,0.3301 c 8.47458,0 12.10743,10.675 12.10743,23.9922 0,13.6474 -4.29282,22.7832 -11.22657,22.7832 -7.0438,0 -12.21679,-9.135 -12.21679,-23.5527 0,-13.6474 4.62231,-23.3328 11.33593,-23.2227 z m 179.492186,0 c 8.474601,0 12.105501,10.675 12.105501,23.9922 0,13.6474 -4.2909,22.7832 -11.2246,22.7832 -7.043801,0 -12.216801,-9.135 -12.216801,-23.5527 0,-13.6474 4.6223,-23.3328 11.3359,-23.2227 z m 166.593804,0 c 8.4745,0 12.1074,10.675 12.1074,23.9922 0,13.6474 -4.2928,22.7832 -11.2266,22.7832 -7.0438,0 -12.2168,-9.135 -12.2168,-23.5527 0,-13.6474 4.6223,-23.3328 11.336,-23.2227 z"
         style="font-style:normal;font-weight:normal;font-size:66.03772736px;line-height:125%;font-family:sans-serif;letter-spacing:0px;word-spacing:0px;fill:#ffffff;fill-opacity:1;stroke:#000000;stroke-width:18.00000191;stroke-linecap:butt;stroke-linejoin:miter;stroke-miterlimit:4;stroke-dasharray:none;stroke-opacity:1" />
      <g
         transform="translate(-1.2178527,0)"
         id="g4348">
        <text
           sodipodi:linespacing="125%"
           id="text4332"
           y="853.79211"
           x="-256.71109"
           style="font-style:normal;font-weight:normal;font-size:66.03772736px;line-height:125%;font-family:sans-serif;letter-spacing:0px;word-spacing:0px;fill:#ffffff;fill-opacity:1;stroke:none;stroke-width:1px;stroke-linecap:butt;stroke-linejoin:miter;stroke-opacity:1"
           xml:space="preserve"><tspan
             style="font-style:normal;font-variant:normal;font-weight:normal;font-stretch:normal;font-family:ChunkFive;-inkscape-font-specification:ChunkFive;fill:#ffffff"
             y="853.79211"
             x="-256.71109"
             id="tspan4334"
             sodipodi:role="line">TODO O PODER</tspan></text>
        <text
           xml:space="preserve"
           style="font-style:normal;font-weight:normal;font-size:56.22522354px;line-height:125%;font-family:sans-serif;letter-spacing:0px;word-spacing:0px;fill:#ffffff;fill-opacity:1;stroke:none;stroke-width:1px;stroke-linecap:butt;stroke-linejoin:miter;stroke-opacity:1"
           x="-257.12613"
           y="899.28009"
           id="text4336"
           sodipodi:linespacing="125%"><tspan
             sodipodi:role="line"
             id="tspan4338"
             x="-257.12613"
             y="899.28009"
             style="font-style:normal;font-variant:normal;font-weight:normal;font-stretch:normal;font-family:ChunkFive;-inkscape-font-specification:ChunkFive;fill:#ffffff">EMANA DO POVO</tspan></text>
        <text
           sodipodi:linespacing="125%"
           id="text4340"
           y="998.25397"
           x="-257.76822"
           style="font-style:normal;font-weight:normal;font-size:81.90847015px;line-height:125%;font-family:sans-serif;letter-spacing:0px;word-spacing:0px;fill:#ffffff;fill-opacity:1;stroke:none;stroke-width:1px;stroke-linecap:butt;stroke-linejoin:miter;stroke-opacity:1"
           xml:space="preserve"><tspan
             style="font-style:normal;font-variant:normal;font-weight:normal;font-stretch:normal;font-family:ChunkFive;-inkscape-font-specification:ChunkFive;fill:#ffffff"
             y="998.25397"
             x="-257.76822"
             id="tspan4342"
             sodipodi:role="line">E SOMENTE</tspan></text>
        <text
           xml:space="preserve"
           style="font-style:normal;font-weight:normal;font-size:110.05941772px;line-height:125%;font-family:sans-serif;letter-spacing:0px;word-spacing:0px;fill:#ffcc00;fill-opacity:1;stroke:none;stroke-width:1px;stroke-linecap:butt;stroke-linejoin:miter;stroke-opacity:1"
           x="-258.47198"
           y="1084.9998"
           id="text4344"
           sodipodi:linespacing="125%"><tspan
             sodipodi:role="line"
             id="tspan4346"
             x="-258.47198"
             y="1084.9998"
             style="font-style:normal;font-variant:normal;font-weight:normal;font-stretch:normal;font-family:ChunkFive;-inkscape-font-specification:ChunkFive;fill:#ffcc00;fill-opacity:1">DO POVO</tspan></text>
      </g>
    </g>
  </g>
</svg>
