<?xml version="1.0" encoding="UTF-8" standalone="no"?>
<!-- Created with Inkscape (http://www.inkscape.org/) -->

<svg
   xmlns:dc="http://purl.org/dc/elements/1.1/"
   xmlns:cc="http://creativecommons.org/ns#"
   xmlns:rdf="http://www.w3.org/1999/02/22-rdf-syntax-ns#"
   xmlns:svg="http://www.w3.org/2000/svg"
   xmlns="http://www.w3.org/2000/svg"
   xmlns:sodipodi="http://sodipodi.sourceforge.net/DTD/sodipodi-0.dtd"
   xmlns:inkscape="http://www.inkscape.org/namespaces/inkscape"
   width="512"
   height="512"
   id="svg3000"
   version="1.1"
   inkscape:version="0.48.4 r9939"
   sodipodi:docname="base-glyph.svg">
  <defs
     id="defs6" />
  <sodipodi:namedview
     pagecolor="#ffffff"
     bordercolor="#666666"
     borderopacity="1"
     objecttolerance="10"
     gridtolerance="10"
     guidetolerance="10"
     inkscape:pageopacity="0"
     inkscape:pageshadow="2"
     inkscape:window-width="1920"
     inkscape:window-height="1021"
     id="namedview4"
     showgrid="false"
     fit-margin-top="0"
     fit-margin-left="0"
     fit-margin-right="0"
     fit-margin-bottom="0"
     inkscape:showpageshadow="false"
     inkscape:zoom="0.48760321"
     inkscape:cx="-326.44079"
     inkscape:cy="255.99999"
     inkscape:window-x="0"
     inkscape:window-y="27"
     inkscape:window-maximized="1"
     inkscape:current-layer="svg3000" />
  <metadata
     id="metadata3005">
    <rdf:RDF>
      <cc:Work
         rdf:about="">
        <dc:format>image/svg+xml</dc:format>
        <dc:type
           rdf:resource="http://purl.org/dc/dcmitype/StillImage" />
        <dc:title></dc:title>
      </cc:Work>
    </rdf:RDF>
  </metadata>
  <path
     inkscape:connector-curvature="0"
     d="m 511.80292,175.1293 c -0.0464,-0.32294 -0.12586,-0.63263 -0.18051,-0.95557 -0.10765,-0.61938 -0.22358,-1.23876 -0.38422,-1.84489 -0.0944,-0.36434 -0.22854,-0.71378 -0.34116,-1.06322 -0.17554,-0.53989 -0.35109,-1.07812 -0.56639,-1.6031 -0.1507,-0.36434 -0.3246,-0.72703 -0.49186,-1.07813 -0.23186,-0.49682 -0.47199,-0.98206 -0.74856,-1.4524 -0.20204,-0.35108 -0.41568,-0.68893 -0.62435,-1.02346 -0.2981,-0.45875 -0.59951,-0.90424 -0.93073,-1.33483 -0.24179,-0.32128 -0.49683,-0.64588 -0.75187,-0.95557 -0.3511,-0.40242 -0.71544,-0.80651 -1.09966,-1.18576 -0.28816,-0.29479 -0.57301,-0.59123 -0.87442,-0.86283 -0.40409,-0.36268 -0.82143,-0.71378 -1.2454,-1.04831 -0.32791,-0.25669 -0.65416,-0.51339 -0.99697,-0.75518 -0.12918,-0.0811 -0.24179,-0.18879 -0.36434,-0.26994 L 268.20136,3.6964161 c -7.39286,-4.928555 -17.01483,-4.928555 -24.40769,0 L 9.79421,159.69445 c -0.1209,0.0811 -0.23517,0.18879 -0.36269,0.26994 -0.34446,0.24179 -0.66741,0.49849 -0.99035,0.75518 -0.43058,0.33619 -0.84792,0.68729 -1.24539,1.04831 -0.30969,0.27161 -0.59123,0.56639 -0.8827,0.86284 -0.38257,0.37924 -0.74691,0.78333 -1.08972,1.18576 -0.26332,0.31134 -0.51837,0.63428 -0.76016,0.95557 -0.32294,0.43059 -0.63428,0.87608 -0.92244,1.33482 -0.22193,0.33619 -0.43059,0.67238 -0.63264,1.02346 -0.26994,0.47034 -0.51173,0.95558 -0.7469,1.45241 -0.16892,0.34944 -0.34447,0.71378 -0.49186,1.07812 -0.2153,0.52498 -0.39085,1.06321 -0.56474,1.60311 -0.11592,0.34943 -0.24179,0.69887 -0.34446,1.06322 -0.16065,0.60613 -0.2683,1.22551 -0.38257,1.84489 -0.053,0.32294 -0.13414,0.63263 -0.17554,0.95557 C 0.07452,176.06998 0,177.02554 0,177.99601 v 155.9997 c 0,0.96881 0.0728,1.92438 0.20205,2.88162 0.0414,0.31133 0.12255,0.63262 0.17554,0.94065 0.11427,0.61938 0.22192,1.23877 0.38257,1.8449 0.10267,0.36435 0.22854,0.71543 0.34446,1.06486 0.17389,0.53659 0.34944,1.07648 0.56474,1.61471 0.14739,0.36766 0.32294,0.7171 0.49186,1.06818 0.23682,0.49683 0.47862,0.98041 0.7469,1.46565 0.20205,0.33785 0.41071,0.67238 0.63264,1.01023 0.28816,0.45708 0.5995,0.90257 0.92244,1.33481 0.24179,0.33619 0.49849,0.64754 0.76016,0.95557 0.34447,0.40244 0.70715,0.80818 1.08972,1.18577 0.28981,0.29478 0.57301,0.59122 0.8827,0.86117 0.39747,0.36599 0.81481,0.71544 1.24539,1.05163 0.32294,0.25669 0.64754,0.51339 0.99035,0.75187 0.12752,0.0828 0.24179,0.19045 0.36269,0.26994 l 233.99946,155.99968 c 3.69477,2.46262 7.95262,3.70305 12.20716,3.70305 4.24957,0 8.5041,-1.24043 12.20218,-3.70305 L 502.20248,352.29727 c 0.12255,-0.0795 0.23516,-0.18713 0.36434,-0.26994 0.34281,-0.24013 0.66741,-0.49518 0.99697,-0.75187 0.42397,-0.33619 0.84131,-0.68564 1.2454,-1.05163 0.30306,-0.26829 0.58626,-0.56639 0.87442,-0.86117 0.38422,-0.37759 0.74856,-0.78333 1.09966,-1.18577 0.25504,-0.30969 0.51008,-0.61938 0.75187,-0.95557 0.33122,-0.43224 0.63429,-0.87607 0.93073,-1.33481 0.20867,-0.33785 0.42231,-0.67238 0.62435,-1.01023 0.27657,-0.48524 0.5167,-0.96882 0.74856,-1.46565 0.16726,-0.35108 0.34116,-0.70052 0.49186,-1.06818 0.2153,-0.53658 0.38919,-1.07647 0.56639,-1.61471 0.11262,-0.34943 0.24676,-0.70051 0.34116,-1.06486 0.1623,-0.60613 0.27657,-1.22552 0.38422,-1.8449 0.0547,-0.30969 0.13414,-0.63097 0.18051,-0.94065 0.1209,-0.95724 0.19708,-1.91281 0.19708,-2.88162 v -155.9997 c 0,-0.96882 -0.0761,-1.92438 -0.19708,-2.86671 z M 278.00054,63.11233 450.38127,178.02417 373.38395,229.53386 278.00054,165.72928 V 63.11233 z m -44.00439,0 V 165.72928 L 138.61771,229.53386 61.61376,178.02417 233.99615,63.11233 z M 43.99942,219.17992 99.04506,255.99669 43.99942,292.81677 V 219.17992 z M 233.99615,448.88104 61.61541,333.96755 l 77.00395,-51.49479 95.37845,63.79299 v 102.61529 z m 22.00302,-140.83478 -77.81709,-52.04957 77.81709,-52.04792 77.81213,52.04792 -77.81213,52.04957 z m 22.00137,140.83478 V 346.26575 l 95.38341,-63.79299 76.99732,51.49479 -172.38073,114.91349 z m 189.99508,-156.06593 -55.03737,-36.82008 55.03737,-36.81676 v 73.63684 z"
     id="path2986" />
</svg>
