<?xml version="1.0" encoding="UTF-8" standalone="no"?>
<!-- Created with Inkscape (http://www.inkscape.org/) -->

<svg
   xmlns:dc="http://purl.org/dc/elements/1.1/"
   xmlns:cc="http://creativecommons.org/ns#"
   xmlns:rdf="http://www.w3.org/1999/02/22-rdf-syntax-ns#"
   xmlns:svg="http://www.w3.org/2000/svg"
   xmlns="http://www.w3.org/2000/svg"
   xmlns:sodipodi="http://sodipodi.sourceforge.net/DTD/sodipodi-0.dtd"
   xmlns:inkscape="http://www.inkscape.org/namespaces/inkscape"
   width="512"
   height="512"
   id="svg3000"
   version="1.1"
   inkscape:version="0.48.4 r9939"
   sodipodi:docname="base-glyph.svg">
  <defs
     id="defs6" />
  <sodipodi:namedview
     pagecolor="#ffffff"
     bordercolor="#666666"
     borderopacity="1"
     objecttolerance="10"
     gridtolerance="10"
     guidetolerance="10"
     inkscape:pageopacity="0"
     inkscape:pageshadow="2"
     inkscape:window-width="1920"
     inkscape:window-height="1021"
     id="namedview4"
     showgrid="false"
     fit-margin-top="0"
     fit-margin-left="0"
     fit-margin-right="0"
     fit-margin-bottom="0"
     inkscape:showpageshadow="false"
     inkscape:zoom="0.48760321"
     inkscape:cx="-326.44079"
     inkscape:cy="255.99999"
     inkscape:window-x="0"
     inkscape:window-y="27"
     inkscape:window-maximized="1"
     inkscape:current-layer="svg3000" />
  <metadata
     id="metadata3005">
    <rdf:RDF>
      <cc:Work
         rdf:about="">
        <dc:format>image/svg+xml</dc:format>
        <dc:type
           rdf:resource="http://purl.org/dc/dcmitype/StillImage" />
        <dc:title></dc:title>
      </cc:Work>
    </rdf:RDF>
  </metadata>
  <path
     d="M 255.98988,0 C 114.60205,0.0107 0,114.61991 0,256.01131 0,397.37772 114.60205,512 255.98988,512 397.37772,512 511.98453,397.37772 512,256.01131 511.9845,114.61991 397.37772,0.01072 255.98988,0 z m 156.85436,132.73382 c 24.97762,31.71751 40.61675,70.99151 42.5892,113.88068 -28.8999,-6.134 -56.20588,-9.11946 -81.66202,-9.11946 v -0.006 h -0.18808 c -20.49467,0 -39.72873,1.86056 -57.85693,5.07576 -4.40557,-10.79788 -8.87186,-21.16961 -13.37147,-31.10327 40.37272,-17.70801 79.12415,-42.9225 110.4893,-78.72776 z M 255.98988,56.28088 c 47.11023,0 90.32795,16.470009 124.54405,43.88908 -26.18346,31.3473 -60.74358,54.05011 -98.07847,70.08087 C 256.222,119.52306 230.873,83.23332 213.54472,61.04713 c 13.71668,-3.04378 27.87499,-4.76625 42.44516,-4.76625 z m -88.21741,20.819635 c 13.86309,16.374781 41.61904,52.391925 71.26411,108.625175 -60.29124,17.94727 -121.00269,22.16357 -157.73643,22.15286 -1.04753,0 -2.08316,0 -3.09973,-0.0107 h -0.0333 c -6.18637,0 -11.50615,-0.0976 -15.94743,-0.23331 C 76.5506,150.28946 115.8365,102.79712 167.77251,77.100518 z M 56.26421,256.01131 c 0,-0.93921 0.0333,-1.89389 0.0893,-2.87714 5.70308,0.2107 13.01673,0.39164 21.81955,0.39164 h 0.05 c 40.14774,-0.26188 110.24528,-3.61636 181.28441,-26.04419 3.87228,8.46713 7.70529,17.28304 11.49425,26.43582 -47.43997,15.86649 -84.80342,41.14408 -112.43914,66.31691 -26.60485,24.23244 -44.5795,48.23395 -55.08217,64.25638 C 74.09127,349.69492 56.27971,304.97852 56.26424,256.01131 z m 199.72567,199.73401 c -44.44736,0 -85.41408,-14.69993 -118.64812,-39.36567 7.06367,-11.63352 22.2088,-33.96731 46.32577,-57.04509 24.81334,-23.77771 59.06635,-48.25537 103.78869,-62.82197 15.20108,42.61181 28.95584,91.32309 39.43351,146.15528 -22.0731,8.40523 -45.92343,13.07745 -70.89985,13.07745 z m 113.03909,-35.466 c -10.13366,-49.58978 -22.87304,-94.30617 -36.86112,-134.21226 12.97151,-1.86056 26.58819,-2.91047 40.96076,-2.91047 h 0.51663 0.0333 0.0333 c 23.82176,0 49.99927,2.96046 78.38849,9.4111 -9.82772,52.81093 -40.41676,98.29392 -83.07142,127.71163 z"
     id="Dribbble"
     inkscape:connector-curvature="0" />
</svg>
